<?xml version="1.0" encoding="utf-8" standalone="no"?>
<!DOCTYPE svg PUBLIC "-//W3C//DTD SVG 1.1//EN"
  "http://www.w3.org/Graphics/SVG/1.1/DTD/svg11.dtd">
<!-- Created with matplotlib (https://matplotlib.org/) -->
<svg height="215.182813pt" version="1.1" viewBox="0 0 555.567969 215.182813" width="555.567969pt" xmlns="http://www.w3.org/2000/svg" xmlns:xlink="http://www.w3.org/1999/xlink">
 <defs>
  <style type="text/css">
*{stroke-linecap:butt;stroke-linejoin:round;}
  </style>
 </defs>
 <g id="figure_1">
  <g id="patch_1">
   <path d="M 0 215.182813 
L 555.567969 215.182813 
L 555.567969 0 
L 0 0 
z
" style="fill:#ffffff;"/>
  </g>
  <g id="axes_1">
   <g id="patch_2">
    <path d="M 47.367969 180.73125 
L 549.567969 180.73125 
L 549.567969 14.41125 
L 47.367969 14.41125 
z
" style="fill:#eaeaf2;"/>
   </g>
   <g id="matplotlib.axis_1">
    <g id="xtick_1">
     <g id="line2d_1">
      <path clip-path="url(#pdc0481f6d2)" d="M 69.73522 180.73125 
L 69.73522 14.41125 
" style="fill:none;stroke:#ffffff;stroke-linecap:round;"/>
     </g>
     <g id="text_1">
      <!-- 0 -->
      <defs>
       <path d="M 31.203125 69.296875 
C 15.703125 69.296875 6.40625 56 6.40625 34.203125 
C 6.40625 12.296875 15.703125 -1 31.203125 -1 
C 46.59375 -1 56 12.296875 56 34.203125 
C 56 56 46.59375 69.296875 31.203125 69.296875 
z
M 31.203125 65.296875 
C 44 65.296875 51.703125 53.703125 51.703125 34.203125 
C 51.703125 14.59375 44 3.09375 31.203125 3.09375 
C 18.296875 3.09375 10.703125 14.59375 10.703125 34.203125 
C 10.703125 53.703125 18.296875 65.296875 31.203125 65.296875 
z
" id="Neris-Thin-48"/>
      </defs>
      <g style="fill:#262626;" transform="translate(66.302877 197.941563)scale(0.11 -0.11)">
       <use xlink:href="#Neris-Thin-48"/>
      </g>
     </g>
    </g>
    <g id="xtick_2">
     <g id="line2d_2">
      <path clip-path="url(#pdc0481f6d2)" d="M 133.627049 180.73125 
L 133.627049 14.41125 
" style="fill:none;stroke:#ffffff;stroke-linecap:round;"/>
     </g>
     <g id="text_2">
      <!-- 2500 -->
      <defs>
       <path d="M 9 65.40625 
C 8.5 65.296875 8.296875 64.90625 8.5 64.40625 
L 9.203125 62.203125 
C 9.296875 61.703125 9.703125 61.5 10.203125 61.703125 
L 14.796875 63.203125 
C 18.296875 64.40625 23.296875 65.296875 28.5 65.296875 
C 38.59375 65.296875 45.203125 60.203125 45.203125 52.5 
C 45.203125 48 42.40625 43.90625 36.5 39.703125 
L 19.09375 27.09375 
C 10.796875 21.203125 7.40625 13.203125 7.40625 3.59375 
L 7.40625 0.796875 
C 7.40625 0.296875 7.703125 0 8.203125 0 
L 47.796875 0 
C 48.296875 0 48.59375 0.296875 48.59375 0.796875 
L 48.59375 3.203125 
C 48.59375 3.703125 48.296875 4 47.796875 4 
L 11.59375 4 
C 11.59375 11.90625 14.5 18.90625 21.5 23.796875 
L 38.796875 36.5 
C 46 41.703125 49.5 46.796875 49.5 52.5 
C 49.5 63 41.203125 69.296875 28.5 69.296875 
C 22.59375 69.296875 17.59375 68.09375 13.59375 66.90625 
z
" id="Neris-Thin-50"/>
       <path d="M 47 67.40625 
C 47.203125 67.90625 46.90625 68.296875 46.40625 68.296875 
L 11 68.296875 
C 10.5 68.296875 10.203125 68 10.203125 67.5 
L 10.203125 38.703125 
C 10.203125 38.296875 10.296875 38 10.703125 37.703125 
L 11.59375 36.90625 
C 11.90625 36.59375 12.203125 36.5 12.59375 36.59375 
L 18.09375 37.296875 
C 22.09375 38 26.5 38.203125 28.90625 38.203125 
C 40.796875 38.203125 47.40625 31.796875 47.40625 20.90625 
C 47.40625 9.796875 39.90625 3.09375 27.203125 3.09375 
C 22 3.09375 17.203125 4.09375 13.59375 5.203125 
L 9 6.703125 
C 8.59375 6.796875 8.203125 6.59375 8 6.203125 
L 7.203125 3.90625 
C 7 3.40625 7.203125 3 7.703125 2.90625 
L 12.296875 1.40625 
C 16.203125 0.296875 21.296875 -1 27.203125 -1 
C 42.59375 -1 51.59375 7.203125 51.59375 20.90625 
C 51.59375 34.296875 43.5 42.296875 29 42.296875 
C 26.703125 42.296875 22.203125 41.90625 18.09375 41.203125 
L 15.296875 40.796875 
C 14.296875 40.59375 14 40.90625 14.203125 41.90625 
C 14.40625 43.5 14.40625 45.40625 14.40625 46.90625 
L 14.40625 64.40625 
L 45.40625 64.40625 
C 45.90625 64.40625 46.203125 64.59375 46.296875 65.09375 
z
" id="Neris-Thin-53"/>
      </defs>
      <g style="fill:#262626;" transform="translate(120.442518 197.941563)scale(0.11 -0.11)">
       <use xlink:href="#Neris-Thin-50"/>
       <use x="56.399994" xlink:href="#Neris-Thin-53"/>
       <use x="114.899979" xlink:href="#Neris-Thin-48"/>
       <use x="177.299973" xlink:href="#Neris-Thin-48"/>
      </g>
     </g>
    </g>
    <g id="xtick_3">
     <g id="line2d_3">
      <path clip-path="url(#pdc0481f6d2)" d="M 197.518879 180.73125 
L 197.518879 14.41125 
" style="fill:none;stroke:#ffffff;stroke-linecap:round;"/>
     </g>
     <g id="text_3">
      <!-- 5000 -->
      <g style="fill:#262626;" transform="translate(184.004347 197.941563)scale(0.11 -0.11)">
       <use xlink:href="#Neris-Thin-53"/>
       <use x="58.499985" xlink:href="#Neris-Thin-48"/>
       <use x="120.899979" xlink:href="#Neris-Thin-48"/>
       <use x="183.299973" xlink:href="#Neris-Thin-48"/>
      </g>
     </g>
    </g>
    <g id="xtick_4">
     <g id="line2d_4">
      <path clip-path="url(#pdc0481f6d2)" d="M 261.410708 180.73125 
L 261.410708 14.41125 
" style="fill:none;stroke:#ffffff;stroke-linecap:round;"/>
     </g>
     <g id="text_4">
      <!-- 7500 -->
      <defs>
       <path d="M 50.796875 67.703125 
C 50.59375 68.09375 50.296875 68.296875 49.90625 68.296875 
L 5.796875 68.296875 
C 5.296875 68.296875 5 68 5 67.5 
L 5 65.203125 
C 5 64.703125 5.296875 64.40625 5.796875 64.40625 
L 44.59375 64.40625 
C 45.59375 64.40625 46 64.09375 45.5 63.203125 
C 44.296875 61.59375 43.40625 60.09375 42.796875 58.703125 
L 16.59375 0.90625 
C 16.40625 0.40625 16.59375 0 17.203125 0 
L 20.09375 0 
C 20.59375 0 20.90625 0.203125 21.09375 0.59375 
L 46.90625 57.59375 
C 48.203125 60.40625 49.5 63.203125 51.203125 65.796875 
C 51.5 66.09375 51.5 66.5 51.296875 66.90625 
z
" id="Neris-Thin-55"/>
      </defs>
      <g style="fill:#262626;" transform="translate(248.226177 197.941563)scale(0.11 -0.11)">
       <use xlink:href="#Neris-Thin-55"/>
       <use x="56.399994" xlink:href="#Neris-Thin-53"/>
       <use x="114.899979" xlink:href="#Neris-Thin-48"/>
       <use x="177.299973" xlink:href="#Neris-Thin-48"/>
      </g>
     </g>
    </g>
    <g id="xtick_5">
     <g id="line2d_5">
      <path clip-path="url(#pdc0481f6d2)" d="M 325.302537 180.73125 
L 325.302537 14.41125 
" style="fill:none;stroke:#ffffff;stroke-linecap:round;"/>
     </g>
     <g id="text_5">
      <!-- 10000 -->
      <defs>
       <path d="M 19.796875 0 
C 20.296875 0 20.59375 0.296875 20.59375 0.796875 
L 20.59375 67.796875 
C 20.59375 68.203125 20.40625 68.5 20.09375 68.703125 
L 19.703125 69 
C 19.40625 69.203125 19 69.203125 18.59375 69 
L 5.59375 62.09375 
C 5.09375 61.796875 5 61.5 5.203125 61 
L 6.296875 58.703125 
C 6.59375 58.296875 7 58.09375 7.40625 58.40625 
L 15.5 62.796875 
C 15.703125 62.90625 15.90625 63 16.09375 63 
C 16.5 63 16.703125 62.703125 16.703125 62.09375 
C 16.59375 60.40625 16.40625 59 16.40625 57.296875 
L 16.40625 0.796875 
C 16.40625 0.296875 16.703125 0 17.203125 0 
z
" id="Neris-Thin-49"/>
      </defs>
      <g style="fill:#262626;" transform="translate(309.928318 197.941563)scale(0.11 -0.11)">
       <use xlink:href="#Neris-Thin-49"/>
       <use x="29.899994" xlink:href="#Neris-Thin-48"/>
       <use x="92.299988" xlink:href="#Neris-Thin-48"/>
       <use x="154.699982" xlink:href="#Neris-Thin-48"/>
       <use x="217.099976" xlink:href="#Neris-Thin-48"/>
      </g>
     </g>
    </g>
    <g id="xtick_6">
     <g id="line2d_6">
      <path clip-path="url(#pdc0481f6d2)" d="M 389.194366 180.73125 
L 389.194366 14.41125 
" style="fill:none;stroke:#ffffff;stroke-linecap:round;"/>
     </g>
     <g id="text_6">
      <!-- 12500 -->
      <g style="fill:#262626;" transform="translate(374.364991 197.941563)scale(0.11 -0.11)">
       <use xlink:href="#Neris-Thin-49"/>
       <use x="29.899994" xlink:href="#Neris-Thin-50"/>
       <use x="86.299988" xlink:href="#Neris-Thin-53"/>
       <use x="144.799973" xlink:href="#Neris-Thin-48"/>
       <use x="207.199966" xlink:href="#Neris-Thin-48"/>
      </g>
     </g>
    </g>
    <g id="xtick_7">
     <g id="line2d_7">
      <path clip-path="url(#pdc0481f6d2)" d="M 453.086195 180.73125 
L 453.086195 14.41125 
" style="fill:none;stroke:#ffffff;stroke-linecap:round;"/>
     </g>
     <g id="text_7">
      <!-- 15000 -->
      <g style="fill:#262626;" transform="translate(437.92682 197.941563)scale(0.11 -0.11)">
       <use xlink:href="#Neris-Thin-49"/>
       <use x="29.899994" xlink:href="#Neris-Thin-53"/>
       <use x="88.399979" xlink:href="#Neris-Thin-48"/>
       <use x="150.799973" xlink:href="#Neris-Thin-48"/>
       <use x="213.199966" xlink:href="#Neris-Thin-48"/>
      </g>
     </g>
    </g>
    <g id="xtick_8">
     <g id="line2d_8">
      <path clip-path="url(#pdc0481f6d2)" d="M 516.978025 180.73125 
L 516.978025 14.41125 
" style="fill:none;stroke:#ffffff;stroke-linecap:round;"/>
     </g>
     <g id="text_8">
      <!-- 17500 -->
      <g style="fill:#262626;" transform="translate(502.14865 197.941563)scale(0.11 -0.11)">
       <use xlink:href="#Neris-Thin-49"/>
       <use x="29.899994" xlink:href="#Neris-Thin-55"/>
       <use x="86.299988" xlink:href="#Neris-Thin-53"/>
       <use x="144.799973" xlink:href="#Neris-Thin-48"/>
       <use x="207.199966" xlink:href="#Neris-Thin-48"/>
      </g>
     </g>
    </g>
    <g id="text_9">
     <!-- Iteration -->
     <defs>
      <path d="M 13.59375 67.5 
C 13.59375 68 13.296875 68.296875 12.796875 68.296875 
L 10.09375 68.296875 
C 9.59375 68.296875 9.296875 68 9.296875 67.5 
L 9.296875 0.796875 
C 9.296875 0.296875 9.59375 0 10.09375 0 
L 12.796875 0 
C 13.296875 0 13.59375 0.296875 13.59375 0.796875 
z
" id="Neris-Thin-73"/>
      <path d="M 15.296875 47.59375 
L 15.296875 61 
C 15.296875 61.59375 14.90625 61.90625 14.40625 61.703125 
L 11.796875 60.796875 
C 11.296875 60.703125 11.09375 60.40625 11.09375 59.90625 
L 11.09375 47.59375 
L 6.59375 47.59375 
C 6.09375 47.59375 5.796875 47.296875 5.796875 46.796875 
L 5.796875 44.40625 
C 5.796875 43.90625 6.09375 43.59375 6.59375 43.59375 
L 11.09375 43.59375 
L 11.09375 10.296875 
C 11.09375 3.09375 14.90625 -1 21.296875 -1 
C 22.796875 -1 24.296875 -0.703125 25.40625 -0.203125 
C 25.90625 0 26 0.296875 25.796875 0.796875 
L 24.90625 3.09375 
C 24.703125 3.5 24.40625 3.703125 23.90625 3.5 
C 23 3.203125 22.09375 3.09375 21.296875 3.09375 
C 17.5 3.09375 15.296875 5.703125 15.296875 10.40625 
L 15.296875 43.59375 
L 26.40625 43.59375 
C 26.90625 43.59375 27.203125 43.90625 27.203125 44.40625 
L 27.203125 46.796875 
C 27.203125 47.296875 26.90625 47.59375 26.40625 47.59375 
z
" id="Neris-Thin-116"/>
      <path d="M 40.203125 1.296875 
C 40.703125 1.40625 40.90625 1.796875 40.703125 2.296875 
L 40 4.59375 
C 39.796875 5.09375 39.40625 5.296875 38.90625 5.203125 
L 36.5 4.40625 
C 33.40625 3.40625 30.296875 3.09375 26.59375 3.09375 
C 17.40625 3.09375 11.40625 8.703125 10 18.59375 
L 31.40625 22.203125 
C 39.90625 23.703125 44.09375 27.703125 44.09375 34.296875 
C 44.09375 43.296875 37.59375 48.59375 26.59375 48.59375 
C 13.5 48.59375 5.40625 39.09375 5.40625 23.796875 
C 5.40625 8.5 13.40625 -1 26.59375 -1 
C 30.59375 -1 34.09375 -0.5 37.703125 0.59375 
z
M 9.59375 22.5 
C 9.703125 37.09375 15.90625 44.5 26.59375 44.5 
C 35 44.5 39.90625 40.796875 39.90625 34.296875 
C 39.90625 30 36.703125 27.203125 30.59375 26.09375 
z
" id="Neris-Thin-101"/>
      <path d="M 30.796875 47.796875 
C 30.796875 48.296875 30.5 48.59375 30 48.59375 
C 22.203125 48.296875 17 44.5 13.40625 38.09375 
C 13 37.5 12.40625 37.59375 12.296875 38.296875 
L 12.296875 46.796875 
C 12.296875 47.296875 12 47.59375 11.5 47.59375 
L 9.09375 47.59375 
C 8.59375 47.59375 8.296875 47.296875 8.296875 46.796875 
L 8.296875 0.796875 
C 8.296875 0.296875 8.59375 0 9.09375 0 
L 11.703125 0 
C 12.203125 0 12.5 0.296875 12.5 0.796875 
L 12.5 18.296875 
C 12.5 34.40625 19.296875 44 30 44.5 
C 30.5 44.5 30.796875 44.796875 30.796875 45.296875 
z
" id="Neris-Thin-114"/>
      <path d="M 9.703125 46 
C 9.203125 45.90625 9 45.5 9.09375 45 
L 9.90625 42.703125 
C 10 42.203125 10.40625 42 10.90625 42.09375 
L 14.40625 43.296875 
C 17 44 20.296875 44.5 24 44.5 
C 33.296875 44.5 38.5 38.796875 38.5 29.09375 
L 38.5 27.40625 
L 22.09375 27.40625 
C 10.703125 27.296875 4.90625 21.5 4.90625 13.09375 
C 4.90625 4.40625 10.59375 -1 20.296875 -1 
C 28.296875 -1 33.59375 1.40625 37.203125 6.09375 
C 38 7.203125 38.796875 7.40625 38.90625 6.09375 
L 38.90625 0.796875 
C 38.90625 0.296875 39.203125 0 39.703125 0 
L 42 0 
C 42.5 0 42.796875 0.296875 42.796875 0.796875 
L 42.796875 29.09375 
C 42.796875 41.09375 35.59375 48.59375 24.09375 48.59375 
C 19.796875 48.59375 16.09375 48 13.40625 47.09375 
z
M 38.5 23.40625 
L 38.5 21.703125 
C 38.5 10 31.796875 3 20.40625 3 
C 13.09375 3 9.09375 6.796875 9.09375 13.203125 
C 9.09375 19.203125 13.203125 23.40625 22.09375 23.40625 
z
" id="Neris-Thin-97"/>
      <path d="M 12.203125 70.59375 
C 10.203125 70.59375 9 69.40625 9 67.40625 
C 9 65.203125 10.203125 64.09375 12.203125 64.09375 
C 14.203125 64.09375 15.296875 65.203125 15.296875 67.40625 
C 15.296875 69.40625 14.203125 70.59375 12.203125 70.59375 
z
M 15.296875 46.796875 
C 15.296875 47.296875 15 47.59375 14.5 47.59375 
L 6.59375 47.59375 
C 6.09375 47.59375 5.796875 47.296875 5.796875 46.796875 
L 5.796875 44.40625 
C 5.796875 43.90625 6.09375 43.59375 6.59375 43.59375 
L 11.09375 43.59375 
L 11.09375 0.796875 
C 11.09375 0.296875 11.40625 0 11.90625 0 
L 14.5 0 
C 15 0 15.296875 0.296875 15.296875 0.796875 
z
" id="Neris-Thin-105"/>
      <path d="M 26.59375 48.59375 
C 13.5 48.59375 5.40625 39.09375 5.40625 23.796875 
C 5.40625 8.59375 13.5 -1 26.59375 -1 
C 39.703125 -1 47.796875 8.59375 47.796875 23.796875 
C 47.796875 39.09375 39.703125 48.59375 26.59375 48.59375 
z
M 26.59375 44.5 
C 37.203125 44.5 43.5 36.796875 43.5 23.796875 
C 43.5 10.90625 37.203125 3.09375 26.59375 3.09375 
C 16 3.09375 9.59375 10.90625 9.59375 23.796875 
C 9.59375 36.796875 16 44.5 26.59375 44.5 
z
" id="Neris-Thin-111"/>
      <path d="M 12.296875 46.796875 
C 12.296875 47.296875 12 47.59375 11.5 47.59375 
L 9.09375 47.59375 
C 8.59375 47.59375 8.296875 47.296875 8.296875 46.796875 
L 8.296875 0.796875 
C 8.296875 0.296875 8.59375 0 9.09375 0 
L 11.703125 0 
C 12.203125 0 12.5 0.296875 12.5 0.796875 
L 12.5 22 
C 12.5 36.296875 19.09375 44.5 30.296875 44.5 
C 38.59375 44.5 43.59375 38.59375 43.59375 28.796875 
L 43.59375 0.796875 
C 43.59375 0.296875 43.90625 0 44.40625 0 
L 46.90625 0 
C 47.40625 0 47.703125 0.296875 47.703125 0.796875 
L 47.703125 29 
C 47.703125 41 41.203125 48.59375 30.5 48.59375 
C 22.5 48.59375 17.09375 45.296875 13.40625 39.59375 
C 12.90625 38.796875 12.296875 38.796875 12.296875 39.703125 
z
" id="Neris-Thin-110"/>
     </defs>
     <g style="fill:#262626;" transform="translate(277.157656 212.662813)scale(0.12 -0.12)">
      <use xlink:href="#Neris-Thin-73"/>
      <use x="22.899994" xlink:href="#Neris-Thin-116"/>
      <use x="54.999985" xlink:href="#Neris-Thin-101"/>
      <use x="104.499969" xlink:href="#Neris-Thin-114"/>
      <use x="140.699966" xlink:href="#Neris-Thin-97"/>
      <use x="190.799957" xlink:href="#Neris-Thin-116"/>
      <use x="222.899948" xlink:href="#Neris-Thin-105"/>
      <use x="246.499939" xlink:href="#Neris-Thin-111"/>
      <use x="299.59993" xlink:href="#Neris-Thin-110"/>
     </g>
    </g>
   </g>
   <g id="matplotlib.axis_2">
    <g id="ytick_1">
     <g id="line2d_9">
      <path clip-path="url(#pdc0481f6d2)" d="M 47.367969 176.268095 
L 549.567969 176.268095 
" style="fill:none;stroke:#ffffff;stroke-linecap:round;"/>
     </g>
     <g id="text_10">
      <!-- 0.00 -->
      <defs>
       <path d="M 10.59375 6.90625 
C 8.203125 6.90625 6.90625 5.40625 6.90625 3 
C 6.90625 0.5 8.203125 -1 10.59375 -1 
C 13 -1 14.40625 0.5 14.40625 3 
C 14.40625 5.40625 13 6.90625 10.59375 6.90625 
z
" id="Neris-Thin-46"/>
      </defs>
      <g style="fill:#262626;" transform="translate(14.93125 180.123251)scale(0.11 -0.11)">
       <use xlink:href="#Neris-Thin-48"/>
       <use x="62.399994" xlink:href="#Neris-Thin-46"/>
       <use x="83.699982" xlink:href="#Neris-Thin-48"/>
       <use x="146.099976" xlink:href="#Neris-Thin-48"/>
      </g>
     </g>
    </g>
    <g id="ytick_2">
     <g id="line2d_10">
      <path clip-path="url(#pdc0481f6d2)" d="M 47.367969 148.134043 
L 549.567969 148.134043 
" style="fill:none;stroke:#ffffff;stroke-linecap:round;"/>
     </g>
     <g id="text_11">
      <!-- 0.05 -->
      <g style="fill:#262626;" transform="translate(15.360937 151.989199)scale(0.11 -0.11)">
       <use xlink:href="#Neris-Thin-48"/>
       <use x="62.399994" xlink:href="#Neris-Thin-46"/>
       <use x="83.699982" xlink:href="#Neris-Thin-48"/>
       <use x="146.099976" xlink:href="#Neris-Thin-53"/>
      </g>
     </g>
    </g>
    <g id="ytick_3">
     <g id="line2d_11">
      <path clip-path="url(#pdc0481f6d2)" d="M 47.367969 119.999991 
L 549.567969 119.999991 
" style="fill:none;stroke:#ffffff;stroke-linecap:round;"/>
     </g>
     <g id="text_12">
      <!-- 0.10 -->
      <g style="fill:#262626;" transform="translate(18.50625 123.855148)scale(0.11 -0.11)">
       <use xlink:href="#Neris-Thin-48"/>
       <use x="62.399994" xlink:href="#Neris-Thin-46"/>
       <use x="83.699982" xlink:href="#Neris-Thin-49"/>
       <use x="113.599976" xlink:href="#Neris-Thin-48"/>
      </g>
     </g>
    </g>
    <g id="ytick_4">
     <g id="line2d_12">
      <path clip-path="url(#pdc0481f6d2)" d="M 47.367969 91.86594 
L 549.567969 91.86594 
" style="fill:none;stroke:#ffffff;stroke-linecap:round;"/>
     </g>
     <g id="text_13">
      <!-- 0.15 -->
      <g style="fill:#262626;" transform="translate(18.935937 95.721096)scale(0.11 -0.11)">
       <use xlink:href="#Neris-Thin-48"/>
       <use x="62.399994" xlink:href="#Neris-Thin-46"/>
       <use x="83.699982" xlink:href="#Neris-Thin-49"/>
       <use x="113.599976" xlink:href="#Neris-Thin-53"/>
      </g>
     </g>
    </g>
    <g id="ytick_5">
     <g id="line2d_13">
      <path clip-path="url(#pdc0481f6d2)" d="M 47.367969 63.731888 
L 549.567969 63.731888 
" style="fill:none;stroke:#ffffff;stroke-linecap:round;"/>
     </g>
     <g id="text_14">
      <!-- 0.20 -->
      <g style="fill:#262626;" transform="translate(15.59125 67.587044)scale(0.11 -0.11)">
       <use xlink:href="#Neris-Thin-48"/>
       <use x="62.399994" xlink:href="#Neris-Thin-46"/>
       <use x="83.699982" xlink:href="#Neris-Thin-50"/>
       <use x="140.099976" xlink:href="#Neris-Thin-48"/>
      </g>
     </g>
    </g>
    <g id="ytick_6">
     <g id="line2d_14">
      <path clip-path="url(#pdc0481f6d2)" d="M 47.367969 35.597836 
L 549.567969 35.597836 
" style="fill:none;stroke:#ffffff;stroke-linecap:round;"/>
     </g>
     <g id="text_15">
      <!-- 0.25 -->
      <g style="fill:#262626;" transform="translate(16.020937 39.452992)scale(0.11 -0.11)">
       <use xlink:href="#Neris-Thin-48"/>
       <use x="62.399994" xlink:href="#Neris-Thin-46"/>
       <use x="83.699982" xlink:href="#Neris-Thin-50"/>
       <use x="140.099976" xlink:href="#Neris-Thin-53"/>
      </g>
     </g>
    </g>
    <g id="text_16">
     <!-- Loss -->
     <defs>
      <path d="M 13.59375 4 
L 13.59375 67.5 
C 13.59375 68 13.296875 68.296875 12.796875 68.296875 
L 10.09375 68.296875 
C 9.59375 68.296875 9.296875 68 9.296875 67.5 
L 9.296875 0.796875 
C 9.296875 0.296875 9.59375 0 10.09375 0 
L 49.09375 0 
C 49.59375 0 49.90625 0.296875 49.90625 0.796875 
L 49.90625 3.203125 
C 49.90625 3.703125 49.59375 4 49.09375 4 
z
" id="Neris-Thin-76"/>
      <path d="M 29.296875 20.796875 
C 34.59375 19.296875 36.90625 16.703125 36.90625 12.40625 
C 36.90625 6.59375 31.90625 3.09375 23.296875 3.09375 
C 17.09375 3.09375 12.90625 3.796875 9.703125 5.09375 
L 7.703125 5.90625 
C 7.296875 6.09375 6.90625 6 6.703125 5.5 
L 5.703125 3.296875 
C 5.5 2.90625 5.703125 2.5 6.203125 2.296875 
L 8.203125 1.5 
C 11.90625 0 17 -1 23.296875 -1 
C 34.59375 -1 41.09375 4 41.09375 12.40625 
C 41.09375 18.59375 38 22.5 30.59375 24.5 
L 18.296875 28.09375 
C 13.09375 29.59375 10.796875 32.203125 10.796875 36.296875 
C 10.796875 41.296875 15.5 44.5 23.296875 44.5 
C 27 44.5 30.796875 44 33.40625 43.203125 
L 36.90625 42.09375 
C 37.40625 42 37.796875 42.203125 37.90625 42.59375 
L 38.703125 44.90625 
C 38.90625 45.40625 38.703125 45.796875 38.203125 45.90625 
L 34.5 47.09375 
C 31.59375 48 27.5 48.59375 23.203125 48.59375 
C 12.703125 48.59375 6.59375 43.90625 6.59375 36.296875 
C 6.59375 30.09375 9.90625 26.296875 16.796875 24.40625 
z
" id="Neris-Thin-115"/>
     </defs>
     <g style="fill:#262626;" transform="translate(8.41125 109.684687)rotate(-90)scale(0.12 -0.12)">
      <use xlink:href="#Neris-Thin-76"/>
      <use x="55.799988" xlink:href="#Neris-Thin-111"/>
      <use x="108.899979" xlink:href="#Neris-Thin-115"/>
      <use x="155.399963" xlink:href="#Neris-Thin-115"/>
     </g>
    </g>
   </g>
   <g id="line2d_15">
    <path clip-path="url(#pdc0481f6d2)" d="M 70.195241 164.088014 
L 70.808603 165.108677 
L 70.885273 173.17125 
L 71.549748 160.745118 
L 72.137553 150.750654 
L 73.773184 170.261881 
L 75.587712 130.546011 
L 75.715496 92.019056 
L 76.252187 77.264104 
L 76.712208 55.957164 
L 77.606694 51.325335 
L 77.657807 54.576992 
L 77.862261 54.621791 
L 78.603406 51.991491 
L 79.114541 48.696595 
L 81.031296 51.384103 
L 81.491317 59.235007 
L 81.849111 61.570085 
L 83.433628 68.164649 
L 84.12366 59.111493 
L 84.532568 61.504844 
L 84.711465 80.450797 
L 84.737022 71.67212 
L 85.580394 63.286915 
L 85.938188 63.301471 
L 86.142642 60.982249 
L 86.270426 82.783904 
L 86.62822 70.895412 
L 86.883787 76.952901 
L 88.187181 68.714947 
L 88.391634 73.55105 
L 89.056109 60.327529 
L 89.28612 60.780297 
L 89.43946 75.070122 
L 89.797255 76.797568 
L 90.027265 72.660765 
L 90.231719 69.552451 
L 90.385059 78.472836 
L 91.100648 47.079306 
L 93.886332 72.196417 
L 94.320796 69.055496 
L 94.550807 78.516126 
L 94.576363 76.862993 
L 94.729704 56.469061 
L 94.883044 73.161133 
L 95.343065 87.835844 
L 95.419736 80.723305 
L 96.902026 60.21551 
L 97.132037 82.505217 
L 97.285377 77.528956 
L 97.668728 80.779364 
L 97.822068 69.891927 
L 97.949852 79.84755 
L 99.278802 78.700755 
L 99.432143 68.544773 
L 99.892164 88.222156 
L 100.224401 86.350663 
L 101.527795 85.525803 
L 101.962259 84.904638 
L 103.367879 54.90265 
L 103.444549 65.580246 
L 103.802344 85.599864 
L 103.904571 68.306315 
L 105.131294 70.343261 
L 105.310191 62.50833 
L 105.872439 71.118577 
L 106.17912 83.872628 
L 106.434687 86.122367 
L 107.201389 91.394973 
L 107.482513 75.637022 
L 107.686967 71.016746 
L 107.840307 74.338096 
L 108.658123 82.50759 
L 109.399268 64.615212 
L 110.217083 83.289504 
L 110.753775 69.701512 
L 111.64826 71.028987 
L 112.721643 76.522938 
L 112.951654 74.877788 
L 113.104994 87.015168 
L 113.232778 77.535932 
L 113.411675 90.163812 
L 113.641685 75.625317 
L 113.99948 98.380444 
L 114.127263 62.730404 
L 114.357274 72.830167 
L 115.251759 86.548624 
L 116.401812 80.66084 
L 116.861834 80.684132 
L 117.091844 87.878589 
L 117.424082 92.464144 
L 117.705206 80.953772 
L 119.161939 92.891708 
L 119.494177 70.017696 
L 120.005312 79.418175 
L 120.87424 87.530863 
L 121.768726 75.482158 
L 122.714325 76.997943 
L 122.790995 88.129087 
L 122.816552 82.247374 
L 123.021006 58.922873 
L 123.123233 92.513068 
L 123.30213 91.752811 
L 124.656637 68.097085 
L 124.835534 96.227773 
L 125.065544 83.370407 
L 125.627792 63.653784 
L 125.730019 94.637282 
L 126.241154 76.377893 
L 126.752289 77.044259 
L 126.905629 72.424831 
L 127.033413 91.046954 
L 127.416764 78.296994 
L 127.544547 81.38059 
L 128.030125 89.595755 
L 128.439033 75.55637 
L 128.6946 89.909255 
L 129.001281 81.842984 
L 129.665756 80.522192 
L 129.895767 98.096147 
L 130.790252 80.511862 
L 130.815809 92.914389 
L 130.866922 82.807499 
L 131.991419 92.981859 
L 132.195873 68.36001 
L 132.425883 75.397608 
L 132.476997 73.33238 
L 132.60478 83.624435 
L 133.243699 82.121781 
L 133.269255 82.284249 
L 133.524823 94.749308 
L 133.70372 79.848313 
L 134.061514 81.997923 
L 134.214854 91.95156 
L 134.444865 81.46494 
L 134.828216 71.769373 
L 134.981556 95.249877 
L 136.336063 95.938672 
L 138.355045 84.850993 
L 138.482828 61.189063 
L 138.815066 91.76263 
L 139.760665 84.285771 
L 140.118459 94.775309 
L 141.012945 83.983581 
L 143.134154 87.427866 
L 143.747515 76.807143 
L 144.360877 82.552498 
L 145.562043 74.583278 
L 145.766497 96.663772 
L 147.172117 74.647739 
L 147.453241 84.349024 
L 148.935532 85.135701 
L 150.366709 73.463834 
L 150.520049 66.982202 
L 150.928957 90.240011 
L 151.388978 79.077399 
L 151.414535 81.652637 
L 152.283464 80.915212 
L 152.539031 86.099829 
L 152.692371 72.357871 
L 152.717928 81.131182 
L 153.356846 105.935145 
L 154.200218 70.204236 
L 155.222488 83.158294 
L 156.014746 91.65918 
L 156.832562 84.454142 
L 157.39481 83.772633 
L 157.880388 79.615045 
L 158.263739 91.323335 
L 158.672647 82.707437 
L 159.413792 94.751681 
L 159.490462 100.132767 
L 160.12938 85.012146 
L 161.739454 81.41677 
L 162.199475 77.941227 
L 162.250589 78.83599 
L 162.455043 73.146871 
L 163.170631 74.307274 
L 163.528426 88.884741 
L 164.959603 75.315975 
L 165.061829 92.829763 
L 165.342953 82.100484 
L 166.671904 89.77283 
L 166.799687 80.037671 
L 167.208595 76.862993 
L 167.336379 97.229582 
L 167.387492 80.590476 
L 167.643059 93.452202 
L 168.486431 71.374433 
L 168.793112 67.049991 
L 170.122062 89.985371 
L 170.403186 81.609624 
L 170.837651 87.277975 
L 171.553239 76.507511 
L 172.524395 76.843113 
L 172.882189 81.725768 
L 174.338923 73.373355 
L 174.466707 67.635563 
L 174.747831 71.696737 
L 176.613472 84.950988 
L 176.894596 75.198146 
L 176.920153 67.726696 
L 176.971266 75.013258 
L 177.09905 75.11913 
L 177.124607 100.439392 
L 177.763525 73.541022 
L 177.891309 87.39707 
L 178.172433 70.786396 
L 178.683567 76.195939 
L 178.760238 82.153508 
L 179.169145 80.762008 
L 179.731393 82.084922 
L 180.063631 91.184377 
L 180.114744 75.284717 
L 181.392581 80.099625 
L 182.005943 78.697283 
L 182.18484 83.693156 
L 182.951542 80.502748 
L 183.028212 94.193283 
L 184.536059 73.821085 
L 184.970523 56.628628 
L 185.583885 84.196928 
L 186.733938 75.356808 
L 186.810608 70.099848 
L 187.219516 74.494804 
L 188.011774 77.97895 
L 188.727363 61.973241 
L 189.034044 86.345431 
L 189.238498 67.237446 
L 190.184097 71.16569 
L 190.31188 77.152018 
L 191.129696 64.744754 
L 191.33415 77.543076 
L 191.56416 83.623832 
L 192.075295 76.978809 
L 192.100852 73.035146 
L 192.458646 84.90338 
L 193.429802 74.167109 
L 193.736482 63.20073 
L 194.22206 81.578157 
L 194.809865 79.181343 
L 195.321 78.311441 
L 196.547723 79.292045 
L 196.777733 79.634372 
L 196.854404 74.116625 
L 198.796715 73.314672 
L 198.847829 58.533694 
L 198.873385 72.796797 
L 200.227892 81.043848 
L 200.739027 69.048453 
L 200.943481 58.925179 
L 202.630225 67.529565 
L 202.834679 63.265577 
L 203.626938 76.009382 
L 204.904774 74.64483 
L 205.927043 69.551017 
L 206.335951 62.436407 
L 206.693745 72.746196 
L 207.230437 73.795025 
L 208.814954 65.257498 
L 208.942738 63.23473 
L 210.169461 76.15187 
L 210.680595 57.024465 
L 210.731709 70.023037 
L 211.549524 70.857179 
L 212.162886 69.467062 
L 212.52068 59.090213 
L 213.61962 58.412947 
L 214.335208 70.977028 
L 214.386322 61.72463 
L 214.488548 69.292813 
L 214.871899 71.682877 
L 215.919725 70.312297 
L 215.996396 66.256934 
L 217.350902 77.198201 
L 218.143161 70.983786 
L 218.168718 56.395486 
L 218.603182 74.526012 
L 218.679852 68.010858 
L 219.548781 74.533575 
L 219.599895 71.794963 
L 219.778792 78.339077 
L 220.698834 76.425384 
L 221.235526 72.625147 
L 221.848887 75.252009 
L 221.976671 76.494783 
L 222.130011 61.752902 
L 222.820043 77.639206 
L 223.331178 75.236238 
L 223.458961 70.190117 
L 223.842312 69.941429 
L 223.970096 70.99176 
L 225.069035 72.292379 
L 225.707954 61.043641 
L 225.759067 69.993229 
L 226.167975 57.103532 
L 226.423542 81.986118 
L 227.701379 64.376385 
L 228.186957 65.336305 
L 228.468081 67.373528 
L 228.519194 72.950671 
L 228.672535 66.758585 
L 229.004772 76.249735 
L 229.464793 55.723913 
L 230.461506 74.997847 
L 231.049311 72.875738 
L 231.790456 65.956899 
L 232.07158 67.799583 
L 232.352704 80.088607 
L 232.684941 82.178528 
L 233.298303 76.152289 
L 235.726193 62.455892 
L 235.751749 63.311222 
L 235.853976 73.81348 
L 236.365111 68.792546 
L 236.390668 62.325747 
L 236.620678 62.899522 
L 237.745174 63.590027 
L 237.924071 59.776107 
L 238.000742 72.34054 
L 238.48632 68.484756 
L 239.866383 71.237353 
L 240.096394 67.452284 
L 240.147507 58.631877 
L 240.249734 67.040131 
L 240.403074 66.937646 
L 240.479745 68.893933 
L 240.658642 51.473382 
L 240.863096 59.44453 
L 240.939766 67.792397 
L 241.246447 70.24361 
L 241.936478 61.65689 
L 242.038705 57.123127 
L 242.319829 67.564605 
L 244.338811 67.852364 
L 244.696605 83.000152 
L 244.901059 58.740223 
L 245.258853 59.568454 
L 245.28441 64.039375 
L 245.948885 69.419337 
L 246.945598 68.584952 
L 247.686743 60.607465 
L 247.763413 37.63672 
L 248.427888 66.185908 
L 248.887909 69.958198 
L 248.990136 63.666612 
L 249.629055 72.628501 
L 250.958005 63.054167 
L 251.341356 81.29355 
L 251.545809 68.861333 
L 251.571366 58.045509 
L 252.133614 68.849536 
L 252.593635 61.960103 
L 253.615905 58.720905 
L 254.152596 74.60673 
L 254.944855 51.718858 
L 256.299361 60.770571 
L 256.580486 63.493713 
L 257.296074 59.979895 
L 257.321631 71.440261 
L 257.807209 61.863277 
L 258.395013 62.905123 
L 258.880591 50.896597 
L 259.877304 58.655262 
L 259.953974 67.400359 
L 260.132871 61.733123 
L 260.388439 62.587212 
L 260.465109 66.411219 
L 260.592892 63.942985 
L 260.84846 63.339059 
L 261.691832 68.342696 
L 262.17741 57.7525 
L 264.196392 56.57438 
L 265.090877 66.517578 
L 265.525342 57.317256 
L 265.780909 63.612598 
L 265.908693 51.646876 
L 266.189817 62.085025 
L 266.343157 57.419238 
L 266.982075 69.219213 
L 267.109859 59.980004 
L 267.237643 62.691181 
L 267.697664 65.343264 
L 267.978788 71.343335 
L 268.055458 21.97125 
L 268.566593 65.536831 
L 269.026614 60.849747 
L 269.921099 59.724567 
L 270.048883 62.364467 
L 271.607844 65.863268 
L 271.6334 57.67506 
L 272.451216 68.467232 
L 273.754609 60.0203 
L 273.98462 67.269827 
L 274.853549 56.286939 
L 275.134673 54.433909 
L 275.441354 62.602975 
L 275.875818 67.154338 
L 277.409222 54.224839 
L 278.022583 53.090679 
L 278.789285 62.290766 
L 278.891512 52.026975 
L 279.249307 55.834204 
L 279.683771 64.339241 
L 279.837111 64.981234 
L 280.910494 59.423124 
L 281.319402 71.123809 
L 281.600526 58.453428 
L 281.830536 64.940661 
L 282.03499 63.59276 
L 282.546125 70.531814 
L 282.597238 53.17881 
L 282.673909 57.462393 
L 282.878362 66.666924 
L 283.389497 61.350349 
L 283.466167 63.070148 
L 283.593951 52.85757 
L 283.823962 62.545406 
L 286.124067 62.826131 
L 286.149624 56.953993 
L 286.200738 64.578119 
L 286.916326 54.035607 
L 287.171893 67.359115 
L 287.555244 60.539642 
L 288.654184 59.5487 
L 288.833081 61.452264 
L 289.318659 56.681426 
L 289.548669 61.235749 
L 290.392042 61.010471 
L 290.417598 53.840799 
L 290.647609 65.429877 
L 291.618765 58.800441 
L 291.823219 64.036096 
L 291.951002 55.201502 
L 292.768818 64.387604 
L 293.969984 66.623274 
L 294.072211 48.145844 
L 294.660016 70.013277 
L 295.120037 55.045725 
L 295.196707 60.98629 
L 295.733398 52.148183 
L 296.014523 52.224718 
L 296.627884 56.656147 
L 296.806781 66.418975 
L 297.241246 57.007185 
L 297.369029 60.852036 
L 297.905721 62.013194 
L 297.956834 55.664374 
L 298.084618 57.95638 
L 298.365742 54.920165 
L 298.672423 56.500621 
L 299.106887 52.578548 
L 299.566908 51.899848 
L 299.720249 58.700715 
L 299.975816 50.183227 
L 300.461394 59.478437 
L 301.151426 63.428355 
L 301.355879 53.982918 
L 301.892571 57.887459 
L 302.429262 55.947036 
L 303.707099 64.560779 
L 303.885996 53.716338 
L 305.266059 58.689806 
L 305.521627 55.765962 
L 305.700524 51.366906 
L 306.390556 55.107863 
L 306.927247 51.547971 
L 307.182814 57.649269 
L 307.591722 54.220856 
L 307.821733 50.013011 
L 308.639548 56.466118 
L 309.176239 52.212191 
L 310.275179 56.057578 
L 310.351849 57.063957 
L 310.862984 56.588332 
L 311.041881 57.754286 
L 311.706356 58.755852 
L 313.495327 50.64656 
L 313.725338 52.783836 
L 313.904235 51.842505 
L 314.236472 46.944817 
L 314.79872 47.771656 
L 315.079844 57.524842 
L 315.769876 46.506151 
L 316.383238 49.014354 
L 316.536578 46.694721 
L 317.124383 48.952644 
L 317.584404 52.497821 
L 319.373375 46.05459 
L 319.603386 50.046633 
L 320.497871 51.342943 
L 321.21346 52.602829 
L 321.29013 54.59356 
L 322.312399 48.049715 
L 322.925761 52.508771 
L 324.586949 54.441254 
L 326.580374 51.331523 
L 326.708157 46.162743 
L 326.784827 48.722973 
L 327.142622 47.792332 
L 327.449302 50.44626 
L 328.037107 46.420964 
L 328.190448 51.902061 
L 328.573799 45.894377 
L 328.727139 49.804284 
L 328.982706 45.618776 
L 329.596068 50.27321 
L 330.030532 51.198065 
L 330.59278 54.017639 
L 331.563936 48.159913 
L 331.84506 49.350267 
L 332.356195 46.355748 
L 332.535092 52.910008 
L 332.662876 50.674363 
L 334.656301 48.609932 
L 335.499673 51.438577 
L 335.883024 52.099745 
L 336.164148 54.738714 
L 336.905293 48.21962 
L 337.263087 53.635804 
L 337.544211 49.806523 
L 337.799779 49.457447 
L 337.902006 49.950763 
L 337.927562 51.478983 
L 338.643151 48.214178 
L 338.873162 50.771314 
L 339.460966 50.137489 
L 339.486523 54.520522 
L 339.793204 51.937629 
L 340.585463 51.859082 
L 340.815473 49.368704 
L 341.249938 52.676933 
L 341.377721 47.98927 
L 341.607732 49.054584 
L 341.812186 47.908426 
L 342.01664 49.14995 
L 342.451104 49.45655 
L 343.217806 53.422667 
L 343.473373 48.027906 
L 344.418972 46.062019 
L 344.648983 54.350608 
L 344.67454 50.058204 
L 345.236788 49.833564 
L 345.415685 49.012359 
L 346.131273 47.771186 
L 346.15683 50.560659 
L 346.386841 51.179216 
L 346.514624 52.44151 
L 346.795748 51.460897 
L 347.025759 50.018226 
L 347.383553 48.846117 
L 348.354709 51.195575 
L 348.431379 46.730725 
L 348.66139 50.230591 
L 349.300308 48.890195 
L 349.402535 49.680452 
L 349.632546 48.914058 
L 349.99034 51.520461 
L 350.14368 51.133269 
L 350.194794 46.686186 
L 351.063723 51.082014 
L 351.217063 49.756652 
L 351.370403 49.677945 
L 351.421517 47.953233 
L 351.702641 47.476132 
L 351.830424 48.992412 
L 352.188219 51.289097 
L 352.418229 51.135549 
L 353.466055 47.619761 
L 353.951633 51.985941 
L 354.641665 48.585516 
L 355.331697 49.487967 
L 355.970615 50.123017 
L 355.996172 52.759336 
L 357.580689 50.196717 
L 357.8107 50.155398 
L 358.781855 48.807423 
L 359.574114 51.611635 
L 360.085249 46.428502 
L 360.570827 49.383235 
L 361.363085 47.780032 
L 361.567539 51.187534 
L 361.618653 48.869821 
L 362.487582 48.090153 
L 362.922046 48.262356 
L 363.433181 47.362789 
L 364.148769 47.677363 
L 364.225439 47.570652 
L 364.250996 47.682293 
L 364.404336 50.449656 
L 364.45545 45.041831 
L 364.889914 47.833249 
L 365.094368 48.20348 
L 365.324379 51.454206 
L 365.70773 50.83274 
L 366.116637 50.720554 
L 367.11335 49.054768 
L 367.420031 50.833997 
L 367.471144 54.21092 
L 367.726712 47.795493 
L 368.007836 48.703621 
L 368.36563 50.240678 
L 368.416743 51.984071 
L 368.851208 48.70565 
L 369.336786 48.015396 
L 370.256828 45.794399 
L 370.94686 51.559576 
L 371.1002 47.420039 
L 371.330211 48.574029 
L 372.096913 47.254913 
L 372.684718 49.866859 
L 372.710274 51.095664 
L 373.170295 50.435737 
L 373.885884 47.810745 
L 374.013668 49.365963 
L 374.703699 48.223049 
L 375.035937 52.705373 
L 375.112607 48.907451 
L 375.623742 49.730416 
L 375.751525 46.842055 
L 376.10932 47.827699 
L 376.364887 50.262813 
L 376.492671 53.153346 
L 376.671568 47.373413 
L 377.157146 52.631496 
L 377.463826 50.714265 
L 378.358312 48.912155 
L 379.942829 48.173932 
L 380.32618 48.236398 
L 380.607304 48.790486 
L 380.709531 47.260548 
L 381.118439 49.592313 
L 382.191822 49.291164 
L 383.316318 49.541981 
L 383.827453 47.489162 
L 383.904123 51.251358 
L 384.31303 49.549426 
L 384.721938 50.308157 
L 386.536466 46.189868 
L 386.766477 47.156419 
L 387.558735 48.670619 
L 388.044313 53.455627 
L 388.120983 46.629975 
L 388.683232 50.706618 
L 390.344419 47.066201 
L 390.497759 45.659307 
L 390.548873 51.630115 
L 391.085564 47.370361 
L 391.647812 51.439709 
L 392.388958 47.727033 
L 393.564567 49.626095 
L 394.280156 49.042912 
L 395.788003 48.568721 
L 396.196911 47.811491 
L 396.989169 48.385979 
L 397.193623 48.794636 
L 397.730315 46.54898 
L 398.497017 49.119548 
L 398.829254 48.770044 
L 399.161492 45.729519 
L 399.314832 48.335629 
L 400.413771 48.153876 
L 400.924906 47.4518 
L 402.407196 42.903942 
L 402.841661 51.564841 
L 403.531693 50.177382 
L 403.761703 46.776488 
L 404.068384 46.164823 
L 404.375065 53.072099 
L 404.758416 48.664767 
L 404.860643 51.601775 
L 405.295107 50.950015 
L 405.755128 48.230394 
L 406.215149 48.859902 
L 406.5985 48.619029 
L 406.854068 48.944553 
L 406.930738 50.136449 
L 407.237419 49.56394 
L 407.365202 50.162164 
L 408.080791 48.715779 
L 408.745266 50.077254 
L 409.588638 46.284219 
L 409.971989 47.268546 
L 410.892031 50.788553 
L 411.019815 46.472043 
L 412.246538 51.01918 
L 412.348765 47.05873 
L 412.8599 49.987689 
L 414.11218 48.539384 
L 414.776655 49.955845 
L 414.853325 48.827126 
L 415.926708 51.438133 
L 416.335615 49.227709 
L 417.613452 49.533353 
L 417.817906 50.413375 
L 417.971246 50.216891 
L 419.249083 46.515333 
L 419.325753 44.431868 
L 419.402423 47.493505 
L 419.734661 51.881687 
L 420.424692 47.752556 
L 421.063611 53.824994 
L 421.242508 50.799956 
L 421.804756 50.227397 
L 422.341447 51.348829 
L 422.673685 49.421444 
L 423.56817 48.14597 
L 424.155975 51.095438 
L 424.232645 49.292874 
L 424.564883 50.86492 
L 424.82045 49.213975 
L 425.91939 51.405106 
L 425.944946 49.225395 
L 426.430524 48.431859 
L 426.507194 48.78626 
L 426.711648 52.44701 
L 426.737205 49.393162 
L 426.762762 52.40113 
L 426.916102 47.810745 
L 427.427237 48.529884 
L 427.47835 48.862208 
L 429.216208 51.06174 
L 429.574002 46.572943 
L 429.727343 47.759046 
L 430.596271 48.902127 
L 431.644097 50.914129 
L 432.359686 50.837284 
L 433.049718 47.726262 
L 433.177501 48.580502 
L 433.330842 50.801499 
L 433.918647 50.684869 
L 434.864246 49.486869 
L 434.889802 48.765835 
L 435.043143 51.008078 
L 435.273153 51.385075 
L 436.014299 48.540021 
L 436.167639 52.631236 
L 436.781001 48.630809 
L 437.394362 49.014136 
L 437.675486 50.258478 
L 438.953323 49.910182 
L 439.566684 47.237154 
L 440.154489 46.710719 
L 441.074531 48.073963 
L 441.687893 49.349118 
L 441.739006 49.018178 
L 441.764563 50.046734 
L 443.297967 50.994596 
L 444.60136 46.85776 
L 444.831371 47.57165 
L 444.933598 50.316567 
L 445.086938 49.211929 
L 445.495846 53.470862 
L 446.594786 46.608905 
L 446.901466 49.666769 
L 447.438158 51.120617 
L 447.463714 52.973697 
L 447.565941 47.513939 
L 447.668168 49.588649 
L 447.770395 47.513897 
L 448.20486 50.569312 
L 448.3582 49.505181 
L 448.460427 53.901202 
L 448.51154 49.858784 
L 449.150459 47.761829 
L 449.636037 49.248746 
L 449.814934 52.621343 
L 449.84049 47.399346 
L 450.326068 49.200224 
L 451.143884 51.18662 
L 451.16944 53.996107 
L 451.194997 50.583616 
L 451.808359 51.519631 
L 452.166153 44.753493 
L 453.469546 48.855114 
L 453.776227 47.351479 
L 455.386301 49.442355 
L 456.459684 48.377594 
L 456.561911 52.383488 
L 457.686407 46.238213 
L 457.737521 49.267402 
L 458.171985 51.780367 
L 459.117584 51.004792 
L 459.884286 54.664351 
L 460.01207 48.611248 
L 460.063183 50.706124 
L 460.31875 51.042589 
L 460.778772 54.195317 
L 461.366576 51.165575 
L 461.801041 50.979462 
L 461.954381 46.609601 
L 462.133278 51.603544 
L 463.334445 51.900669 
L 463.462228 46.953176 
L 463.871136 46.813682 
L 464.024477 50.936843 
L 464.280044 47.674789 
L 464.740065 50.136306 
L 464.918962 49.089413 
L 465.174529 46.912956 
L 465.225643 50.641437 
L 465.55788 50.31266 
L 466.043458 50.664025 
L 466.554593 48.065779 
L 466.835717 51.001706 
L 468.036883 50.412126 
L 468.343564 51.581233 
L 468.624688 49.008167 
L 470.260319 55.048534 
L 471.052578 50.696507 
L 471.998177 51.720501 
L 472.611538 48.145769 
L 472.841549 47.936053 
L 472.994889 48.47712 
L 473.37824 49.237343 
L 473.812705 48.966126 
L 474.170499 45.417025 
L 474.247169 47.514945 
L 474.732747 49.15618 
L 475.218325 48.004371 
L 477.262864 49.236605 
L 478.106236 48.733152 
L 478.31069 47.087909 
L 478.46403 49.698127 
L 479.077391 47.82162 
L 479.102948 50.067108 
L 479.281845 49.490113 
L 480.074104 48.572503 
L 480.764136 46.888858 
L 481.070817 49.060235 
L 481.505281 48.737285 
L 481.607508 50.815392 
L 483.115355 48.861805 
L 483.447593 49.839986 
L 483.805387 44.22741 
L 483.958727 50.125306 
L 484.444305 47.710633 
L 485.006553 46.271902 
L 485.338791 51.730345 
L 486.846638 51.742653 
L 487.408886 46.826292 
L 487.511113 53.495068 
L 487.562226 50.773477 
L 487.587783 51.018299 
L 487.84335 49.35596 
L 488.354485 51.307803 
L 489.01896 47.620113 
L 489.887889 48.955562 
L 490.1179 52.345238 
L 491.549077 46.7349 
L 492.92914 49.262119 
L 493.593615 47.1873 
L 493.721399 48.253485 
L 494.232533 47.014912 
L 495.535927 47.581711 
L 495.638154 50.636976 
L 496.455969 50.139124 
L 497.708249 48.211093 
L 498.219383 51.12605 
L 499.037199 49.121728 
L 499.292766 49.688946 
L 499.318323 51.822114 
L 499.957241 49.693264 
L 500.085025 47.522281 
L 500.187252 48.319489 
L 500.545046 46.660688 
L 501.618429 51.729154 
L 502.00178 45.922944 
L 502.257347 46.845786 
L 504.174102 45.270798 
L 505.886403 49.875277 
L 506.678662 50.710844 
L 507.547591 50.25053 
L 507.573147 51.801018 
L 508.135395 47.404603 
L 509.106551 47.328983 
L 509.234335 49.139436 
L 509.362118 49.094377 
L 509.617686 50.789433 
L 510.307718 49.402754 
L 510.333274 47.21029 
L 510.512171 48.015338 
L 510.869966 49.031308 
L 511.15109 45.373786 
L 511.611111 46.751451 
L 511.662224 46.703173 
L 512.250029 51.368214 
L 512.301143 47.02328 
L 512.377813 51.090541 
L 512.863391 49.396089 
L 513.757876 51.058118 
L 514.090114 45.915339 
L 514.192341 50.834744 
L 514.524578 47.639464 
L 514.550135 48.393617 
L 514.805702 49.742792 
L 515.086826 48.982677 
L 515.342394 47.873026 
L 515.546848 48.929418 
L 515.802415 49.615027 
L 517.054695 45.269473 
L 517.259149 51.392294 
L 517.361375 48.801905 
L 518.076964 48.78574 
L 518.434758 50.090334 
L 518.588099 48.558417 
L 518.945893 46.774693 
L 518.997006 49.219501 
L 519.175903 47.891992 
L 519.27813 48.278824 
L 519.354801 45.707124 
L 519.380357 47.792785 
L 519.482584 51.216201 
L 519.610368 48.759312 
L 520.121503 48.588685 
L 520.37707 48.385568 
L 520.479297 46.327459 
L 520.888204 46.811401 
L 521.245999 48.852087 
L 522.140484 51.30117 
L 522.166041 52.709498 
L 522.191598 49.488906 
L 522.370495 49.959358 
L 522.932743 45.430206 
L 523.418321 46.987226 
L 523.903899 48.081702 
L 523.929456 49.912873 
L 524.057239 49.272936 
L 524.747271 48.001562 
L 525.207292 47.77558 
L 525.718427 49.888852 
L 526.740696 49.93381 
L 526.740696 49.93381 
" style="fill:none;stroke:#4c72b0;stroke-linecap:round;stroke-width:1.5;"/>
   </g>
   <g id="patch_3">
    <path d="M 47.367969 180.73125 
L 47.367969 14.41125 
" style="fill:none;stroke:#ffffff;stroke-linecap:square;stroke-linejoin:miter;stroke-width:1.25;"/>
   </g>
   <g id="patch_4">
    <path d="M 549.567969 180.73125 
L 549.567969 14.41125 
" style="fill:none;stroke:#ffffff;stroke-linecap:square;stroke-linejoin:miter;stroke-width:1.25;"/>
   </g>
   <g id="patch_5">
    <path d="M 47.367969 180.73125 
L 549.567969 180.73125 
" style="fill:none;stroke:#ffffff;stroke-linecap:square;stroke-linejoin:miter;stroke-width:1.25;"/>
   </g>
   <g id="patch_6">
    <path d="M 47.367969 14.41125 
L 549.567969 14.41125 
" style="fill:none;stroke:#ffffff;stroke-linecap:square;stroke-linejoin:miter;stroke-width:1.25;"/>
   </g>
   <g id="text_17">
    <!-- Discriminator loss -->
    <defs>
     <path d="M 10.09375 68.296875 
C 9.59375 68.296875 9.296875 68 9.296875 67.5 
L 9.296875 0.796875 
C 9.296875 0.296875 9.59375 0 10.09375 0 
L 31.703125 0 
C 49.09375 0 59.796875 13 59.796875 34.203125 
C 59.796875 55.40625 49.09375 68.296875 31.703125 68.296875 
z
M 13.59375 64.40625 
L 31.703125 64.40625 
C 46.703125 64.40625 55.40625 53.09375 55.40625 34.203125 
C 55.40625 15.296875 46.703125 4 31.703125 4 
L 13.59375 4 
z
" id="Neris-Thin-68"/>
     <path d="M 40.203125 1.59375 
C 40.703125 1.703125 40.90625 2.09375 40.703125 2.59375 
L 40 4.796875 
C 39.796875 5.203125 39.40625 5.40625 39 5.296875 
L 36.40625 4.5 
C 33.203125 3.5 30.09375 3.09375 27.296875 3.09375 
C 15.703125 3.09375 9.59375 10.90625 9.59375 23.796875 
C 9.59375 36.703125 15.5 44.5 27.59375 44.5 
C 29.90625 44.5 32.703125 44.203125 35.796875 43.296875 
L 38.203125 42.5 
C 38.703125 42.40625 39.09375 42.59375 39.296875 43.09375 
L 40 45.296875 
C 40.203125 45.796875 40 46.203125 39.5 46.296875 
L 37 47 
C 33.703125 48 30.703125 48.59375 27.5 48.59375 
C 13 48.59375 5.40625 39.09375 5.40625 23.796875 
C 5.40625 8.59375 13.09375 -1 27.40625 -1 
C 31 -1 34.296875 -0.203125 37.59375 0.796875 
z
" id="Neris-Thin-99"/>
     <path d="M 12.296875 46.796875 
C 12.296875 47.296875 12 47.59375 11.5 47.59375 
L 9.09375 47.59375 
C 8.59375 47.59375 8.296875 47.296875 8.296875 46.796875 
L 8.296875 0.796875 
C 8.296875 0.296875 8.59375 0 9.09375 0 
L 11.703125 0 
C 12.203125 0 12.5 0.296875 12.5 0.796875 
L 12.5 22 
C 12.5 35 17.40625 44.5 29.296875 44.5 
C 36.796875 44.5 41.296875 38.59375 41.296875 28.90625 
L 41.296875 0.796875 
C 41.296875 0.296875 41.59375 0 42.09375 0 
L 44.59375 0 
C 45.09375 0 45.40625 0.296875 45.40625 0.796875 
L 45.40625 22 
C 45.40625 35 50.40625 44.5 62.40625 44.5 
C 69.90625 44.5 74.203125 38.59375 74.203125 28.796875 
L 74.203125 0.796875 
C 74.203125 0.296875 74.5 0 75 0 
L 77.59375 0 
C 78.09375 0 78.40625 0.296875 78.40625 0.796875 
L 78.40625 29 
C 78.40625 41 72.296875 48.59375 62.5 48.59375 
C 54.796875 48.59375 49.296875 45.40625 45.203125 38.296875 
C 44.796875 37.59375 44 37.5 43.703125 38.40625 
C 41.703125 43.796875 37.296875 48.59375 29.5 48.59375 
C 21.703125 48.59375 17.203125 45.40625 13.40625 39.703125 
C 12.90625 38.90625 12.296875 39 12.296875 39.796875 
z
" id="Neris-Thin-109"/>
     <path id="Neris-Thin-32"/>
     <path d="M 12.5 69.296875 
C 12.5 69.796875 12.203125 70.09375 11.703125 70.09375 
L 9.09375 70.09375 
C 8.59375 70.09375 8.296875 69.796875 8.296875 69.296875 
L 8.296875 7 
C 8.296875 2 11 -1 15.40625 -1 
C 16.296875 -1 17.203125 -0.796875 18 -0.59375 
C 18.5 -0.40625 18.59375 0 18.40625 0.40625 
L 17.40625 2.796875 
C 17.203125 3.203125 16.90625 3.296875 16.40625 3.203125 
C 16.09375 3.09375 15.796875 3.09375 15.40625 3.09375 
C 13.59375 3.09375 12.5 4.59375 12.5 7 
z
" id="Neris-Thin-108"/>
    </defs>
    <g style="fill:#262626;" transform="translate(252.227656 8.41125)scale(0.12 -0.12)">
     <use xlink:href="#Neris-Thin-68"/>
     <use x="65.699997" xlink:href="#Neris-Thin-105"/>
     <use x="89.299988" xlink:href="#Neris-Thin-115"/>
     <use x="135.799973" xlink:href="#Neris-Thin-99"/>
     <use x="182.199966" xlink:href="#Neris-Thin-114"/>
     <use x="218.399963" xlink:href="#Neris-Thin-105"/>
     <use x="241.999954" xlink:href="#Neris-Thin-109"/>
     <use x="328.199936" xlink:href="#Neris-Thin-105"/>
     <use x="351.799927" xlink:href="#Neris-Thin-110"/>
     <use x="407.399918" xlink:href="#Neris-Thin-97"/>
     <use x="457.499908" xlink:href="#Neris-Thin-116"/>
     <use x="489.599899" xlink:href="#Neris-Thin-111"/>
     <use x="542.69989" xlink:href="#Neris-Thin-114"/>
     <use x="578.899887" xlink:href="#Neris-Thin-32"/>
     <use x="600.799881" xlink:href="#Neris-Thin-108"/>
     <use x="624.599869" xlink:href="#Neris-Thin-111"/>
     <use x="677.69986" xlink:href="#Neris-Thin-115"/>
     <use x="724.199844" xlink:href="#Neris-Thin-115"/>
    </g>
   </g>
  </g>
 </g>
 <defs>
  <clipPath id="pdc0481f6d2">
   <rect height="166.32" width="502.2" x="47.367969" y="14.41125"/>
  </clipPath>
 </defs>
</svg>
