<?xml version="1.0" encoding="UTF-8" standalone="no"?>
<!-- Created with matplotlib (https://matplotlib.org/) -->

<svg
   xmlns:dc="http://purl.org/dc/elements/1.1/"
   xmlns:cc="http://creativecommons.org/ns#"
   xmlns:rdf="http://www.w3.org/1999/02/22-rdf-syntax-ns#"
   xmlns:svg="http://www.w3.org/2000/svg"
   xmlns="http://www.w3.org/2000/svg"
   xmlns:xlink="http://www.w3.org/1999/xlink"
   xmlns:sodipodi="http://sodipodi.sourceforge.net/DTD/sodipodi-0.dtd"
   xmlns:inkscape="http://www.inkscape.org/namespaces/inkscape"
   height="388.0434pt"
   version="1.1"
   viewBox="0 0 1001.5873 388.04339"
   width="1001.5873pt"
   id="svg356"
   sodipodi:docname="discriminator-loss.svg"
   inkscape:version="0.92.4 (5da689c313, 2019-01-14)">
  <metadata
     id="metadata360">
    <rdf:RDF>
      <cc:Work
         rdf:about="">
        <dc:format>image/svg+xml</dc:format>
        <dc:type
           rdf:resource="http://purl.org/dc/dcmitype/StillImage" />
      </cc:Work>
    </rdf:RDF>
  </metadata>
  <sodipodi:namedview
     pagecolor="#ffffff"
     bordercolor="#666666"
     borderopacity="1"
     objecttolerance="10"
     gridtolerance="10"
     guidetolerance="10"
     inkscape:pageopacity="0"
     inkscape:pageshadow="2"
     inkscape:window-width="1920"
     inkscape:window-height="1027"
     id="namedview358"
     showgrid="false"
     inkscape:zoom="0.38339142"
     inkscape:cx="370.37866"
     inkscape:cy="373.85598"
     inkscape:window-x="-8"
     inkscape:window-y="-8"
     inkscape:window-maximized="1"
     inkscape:current-layer="svg356" />
  <defs
     id="defs4"
     style="stroke-linecap:butt;stroke-linejoin:round">
    <style
       type="text/css"
       id="style2">
*{stroke-linecap:butt;stroke-linejoin:round;}
  </style>
  </defs>
  <g
     id="figure_1"
     transform="matrix(1.8028169,0,0,1.8028169,0,0.10816901)"
     style="stroke-linecap:butt;stroke-linejoin:round">
    <g
       id="patch_1"
       style="stroke-linecap:butt;stroke-linejoin:round">
      <path
         d="M 0,215.18281 H 555.56797 V 0 H 0 Z"
         style="fill:#ffffff;stroke-linecap:butt;stroke-linejoin:round"
         id="path6"
         inkscape:connector-curvature="0" />
    </g>
    <g
       id="axes_1"
       style="stroke-linecap:butt;stroke-linejoin:round">
      <g
         id="patch_2"
         style="stroke-linecap:butt;stroke-linejoin:round">
        <path
           d="M 47.367969,180.73125 H 549.56797 v -166.32 H 47.367969 Z"
           style="fill:#eaeaf2;stroke-linecap:butt;stroke-linejoin:round"
           id="path9"
           inkscape:connector-curvature="0" />
      </g>
      <g
         id="matplotlib.axis_1"
         style="stroke-linecap:butt;stroke-linejoin:round">
        <g
           id="xtick_1"
           style="stroke-linecap:butt;stroke-linejoin:round">
          <g
             id="line2d_1"
             style="stroke-linecap:butt;stroke-linejoin:round">
            <path
               clip-path="url(#pdc0481f6d2)"
               d="m 69.73522,180.73125 v -166.32"
               style="fill:none;stroke:#ffffff;stroke-linecap:round;stroke-linejoin:round"
               id="path12"
               inkscape:connector-curvature="0" />
          </g>
          <g
             id="text_1"
             style="stroke-linecap:butt;stroke-linejoin:round">
            <!-- 0 -->
            <defs
               id="defs16">
              <path
                 d="M 31.203125,69.296875 C 15.703125,69.296875 6.40625,56 6.40625,34.203125 6.40625,12.296875 15.703125,-1 31.203125,-1 46.59375,-1 56,12.296875 56,34.203125 56,56 46.59375,69.296875 31.203125,69.296875 Z m 0,-4 c 12.796875,0 20.5,-11.59375 20.5,-31.09375 0,-19.609375 -7.703125,-31.109375 -20.5,-31.109375 -12.90625,0 -20.5,11.5 -20.5,31.109375 0,19.5 7.59375,31.09375 20.5,31.09375 z"
                 id="Neris-Thin-48"
                 inkscape:connector-curvature="0"
                 style="stroke-linecap:butt;stroke-linejoin:round" />
            </defs>
            <g
               style="fill:#262626;stroke-linecap:butt;stroke-linejoin:round"
               transform="matrix(0.11,0,0,-0.11,66.302877,197.94156)"
               id="g20">
              <use
                 xlink:href="#Neris-Thin-48"
                 id="use18"
                 style="stroke-linecap:butt;stroke-linejoin:round"
                 x="0"
                 y="0"
                 width="100%"
                 height="100%" />
            </g>
          </g>
        </g>
        <g
           id="xtick_2"
           style="stroke-linecap:butt;stroke-linejoin:round">
          <g
             id="line2d_2"
             style="stroke-linecap:butt;stroke-linejoin:round">
            <path
               clip-path="url(#pdc0481f6d2)"
               d="m 133.62705,180.73125 v -166.32"
               style="fill:none;stroke:#ffffff;stroke-linecap:round;stroke-linejoin:round"
               id="path24"
               inkscape:connector-curvature="0" />
          </g>
          <g
             id="text_2"
             style="stroke-linecap:butt;stroke-linejoin:round">
            <!-- 2500 -->
            <defs
               id="defs29">
              <path
                 d="m 9,65.40625 c -0.5,-0.109375 -0.703125,-0.5 -0.5,-1 l 0.703125,-2.203125 c 0.09375,-0.5 0.5,-0.703125 1,-0.5 l 4.59375,1.5 c 3.5,1.203125 8.5,2.09375 13.703125,2.09375 10.09375,0 16.703125,-5.09375 16.703125,-12.796875 0,-4.5 -2.796875,-8.59375 -8.703125,-12.796875 L 19.09375,27.09375 C 10.796875,21.203125 7.40625,13.203125 7.40625,3.59375 V 0.796875 C 7.40625,0.296875 7.703125,0 8.203125,0 h 39.59375 c 0.5,0 0.796875,0.296875 0.796875,0.796875 v 2.40625 C 48.59375,3.703125 48.296875,4 47.796875,4 H 11.59375 c 0,7.90625 2.90625,14.90625 9.90625,19.796875 L 38.796875,36.5 C 46,41.703125 49.5,46.796875 49.5,52.5 c 0,10.5 -8.296875,16.796875 -21,16.796875 -5.90625,0 -10.90625,-1.203125 -14.90625,-2.390625 z"
                 id="Neris-Thin-50"
                 inkscape:connector-curvature="0"
                 style="stroke-linecap:butt;stroke-linejoin:round" />
              <path
                 d="m 47,67.40625 c 0.203125,0.5 -0.09375,0.890625 -0.59375,0.890625 H 11 C 10.5,68.296875 10.203125,68 10.203125,67.5 V 38.703125 c 0,-0.40625 0.09375,-0.703125 0.5,-1 L 11.59375,36.90625 c 0.3125,-0.3125 0.609375,-0.40625 1,-0.3125 l 5.5,0.703125 c 4,0.703125 8.40625,0.90625 10.8125,0.90625 11.890625,0 18.5,-6.40625 18.5,-17.296875 0,-11.109375 -7.5,-17.8125 -20.203125,-17.8125 -5.203125,0 -10,1 -13.609375,2.109375 L 9,6.703125 C 8.59375,6.796875 8.203125,6.59375 8,6.203125 L 7.203125,3.90625 c -0.203125,-0.5 0,-0.90625 0.5,-1 l 4.59375,-1.5 C 16.203125,0.296875 21.296875,-1 27.203125,-1 42.59375,-1 51.59375,7.203125 51.59375,20.90625 51.59375,34.296875 43.5,42.296875 29,42.296875 c -2.296875,0 -6.796875,-0.390625 -10.90625,-1.09375 l -2.796875,-0.40625 c -1,-0.203125 -1.296875,0.109375 -1.09375,1.109375 0.203125,1.59375 0.203125,3.5 0.203125,5 v 17.5 h 31 c 0.5,0 0.796875,0.1875 0.890625,0.6875 z"
                 id="Neris-Thin-53"
                 inkscape:connector-curvature="0"
                 style="stroke-linecap:butt;stroke-linejoin:round" />
            </defs>
            <g
               style="fill:#262626;stroke-linecap:butt;stroke-linejoin:round"
               transform="matrix(0.11,0,0,-0.11,120.44252,197.94156)"
               id="g39">
              <use
                 xlink:href="#Neris-Thin-50"
                 id="use31"
                 style="stroke-linecap:butt;stroke-linejoin:round"
                 x="0"
                 y="0"
                 width="100%"
                 height="100%" />
              <use
                 x="56.399994"
                 xlink:href="#Neris-Thin-53"
                 id="use33"
                 style="stroke-linecap:butt;stroke-linejoin:round"
                 y="0"
                 width="100%"
                 height="100%" />
              <use
                 x="114.89998"
                 xlink:href="#Neris-Thin-48"
                 id="use35"
                 style="stroke-linecap:butt;stroke-linejoin:round"
                 y="0"
                 width="100%"
                 height="100%" />
              <use
                 x="177.29997"
                 xlink:href="#Neris-Thin-48"
                 id="use37"
                 style="stroke-linecap:butt;stroke-linejoin:round"
                 y="0"
                 width="100%"
                 height="100%" />
            </g>
          </g>
        </g>
        <g
           id="xtick_3"
           style="stroke-linecap:butt;stroke-linejoin:round">
          <g
             id="line2d_3"
             style="stroke-linecap:butt;stroke-linejoin:round">
            <path
               clip-path="url(#pdc0481f6d2)"
               d="m 197.51888,180.73125 v -166.32"
               style="fill:none;stroke:#ffffff;stroke-linecap:round;stroke-linejoin:round"
               id="path43"
               inkscape:connector-curvature="0" />
          </g>
          <g
             id="text_3"
             style="stroke-linecap:butt;stroke-linejoin:round">
            <!-- 5000 -->
            <g
               style="fill:#262626;stroke-linecap:butt;stroke-linejoin:round"
               transform="matrix(0.11,0,0,-0.11,184.00435,197.94156)"
               id="g54">
              <use
                 xlink:href="#Neris-Thin-53"
                 id="use46"
                 style="stroke-linecap:butt;stroke-linejoin:round"
                 x="0"
                 y="0"
                 width="100%"
                 height="100%" />
              <use
                 x="58.499985"
                 xlink:href="#Neris-Thin-48"
                 id="use48"
                 style="stroke-linecap:butt;stroke-linejoin:round"
                 y="0"
                 width="100%"
                 height="100%" />
              <use
                 x="120.89998"
                 xlink:href="#Neris-Thin-48"
                 id="use50"
                 style="stroke-linecap:butt;stroke-linejoin:round"
                 y="0"
                 width="100%"
                 height="100%" />
              <use
                 x="183.29997"
                 xlink:href="#Neris-Thin-48"
                 id="use52"
                 style="stroke-linecap:butt;stroke-linejoin:round"
                 y="0"
                 width="100%"
                 height="100%" />
            </g>
          </g>
        </g>
        <g
           id="xtick_4"
           style="stroke-linecap:butt;stroke-linejoin:round">
          <g
             id="line2d_4"
             style="stroke-linecap:butt;stroke-linejoin:round">
            <path
               clip-path="url(#pdc0481f6d2)"
               d="m 261.41071,180.73125 v -166.32"
               style="fill:none;stroke:#ffffff;stroke-linecap:round;stroke-linejoin:round"
               id="path58"
               inkscape:connector-curvature="0" />
          </g>
          <g
             id="text_4"
             style="stroke-linecap:butt;stroke-linejoin:round">
            <!-- 7500 -->
            <defs
               id="defs62">
              <path
                 d="m 50.796875,67.703125 c -0.203125,0.390625 -0.5,0.59375 -0.890625,0.59375 H 5.796875 C 5.296875,68.296875 5,68 5,67.5 v -2.296875 c 0,-0.5 0.296875,-0.796875 0.796875,-0.796875 H 44.59375 c 1,0 1.40625,-0.3125 0.90625,-1.203125 -1.203125,-1.609375 -2.09375,-3.109375 -2.703125,-4.5 L 16.59375,0.90625 C 16.40625,0.40625 16.59375,0 17.203125,0 h 2.890625 c 0.5,0 0.8125,0.203125 1,0.59375 l 25.8125,57 c 1.296875,2.8125 2.59375,5.609375 4.296875,8.203125 C 51.5,66.09375 51.5,66.5 51.296875,66.90625 Z"
                 id="Neris-Thin-55"
                 inkscape:connector-curvature="0"
                 style="stroke-linecap:butt;stroke-linejoin:round" />
            </defs>
            <g
               style="fill:#262626;stroke-linecap:butt;stroke-linejoin:round"
               transform="matrix(0.11,0,0,-0.11,248.22618,197.94156)"
               id="g72">
              <use
                 xlink:href="#Neris-Thin-55"
                 id="use64"
                 style="stroke-linecap:butt;stroke-linejoin:round"
                 x="0"
                 y="0"
                 width="100%"
                 height="100%" />
              <use
                 x="56.399994"
                 xlink:href="#Neris-Thin-53"
                 id="use66"
                 style="stroke-linecap:butt;stroke-linejoin:round"
                 y="0"
                 width="100%"
                 height="100%" />
              <use
                 x="114.89998"
                 xlink:href="#Neris-Thin-48"
                 id="use68"
                 style="stroke-linecap:butt;stroke-linejoin:round"
                 y="0"
                 width="100%"
                 height="100%" />
              <use
                 x="177.29997"
                 xlink:href="#Neris-Thin-48"
                 id="use70"
                 style="stroke-linecap:butt;stroke-linejoin:round"
                 y="0"
                 width="100%"
                 height="100%" />
            </g>
          </g>
        </g>
        <g
           id="xtick_5"
           style="stroke-linecap:butt;stroke-linejoin:round">
          <g
             id="line2d_5"
             style="stroke-linecap:butt;stroke-linejoin:round">
            <path
               clip-path="url(#pdc0481f6d2)"
               d="m 325.30254,180.73125 v -166.32"
               style="fill:none;stroke:#ffffff;stroke-linecap:round;stroke-linejoin:round"
               id="path76"
               inkscape:connector-curvature="0" />
          </g>
          <g
             id="text_5"
             style="stroke-linecap:butt;stroke-linejoin:round">
            <!-- 10000 -->
            <defs
               id="defs80">
              <path
                 d="m 19.796875,0 c 0.5,0 0.796875,0.296875 0.796875,0.796875 v 67 c 0,0.40625 -0.1875,0.703125 -0.5,0.90625 L 19.703125,69 C 19.40625,69.203125 19,69.203125 18.59375,69 l -13,-6.90625 C 5.09375,61.796875 5,61.5 5.203125,61 l 1.09375,-2.296875 C 6.59375,58.296875 7,58.09375 7.40625,58.40625 L 15.5,62.796875 C 15.703125,62.90625 15.90625,63 16.09375,63 16.5,63 16.703125,62.703125 16.703125,62.09375 16.59375,60.40625 16.40625,59 16.40625,57.296875 v -56.5 C 16.40625,0.296875 16.703125,0 17.203125,0 Z"
                 id="Neris-Thin-49"
                 inkscape:connector-curvature="0"
                 style="stroke-linecap:butt;stroke-linejoin:round" />
            </defs>
            <g
               style="fill:#262626;stroke-linecap:butt;stroke-linejoin:round"
               transform="matrix(0.11,0,0,-0.11,309.92832,197.94156)"
               id="g92">
              <use
                 xlink:href="#Neris-Thin-49"
                 id="use82"
                 style="stroke-linecap:butt;stroke-linejoin:round"
                 x="0"
                 y="0"
                 width="100%"
                 height="100%" />
              <use
                 x="29.899994"
                 xlink:href="#Neris-Thin-48"
                 id="use84"
                 style="stroke-linecap:butt;stroke-linejoin:round"
                 y="0"
                 width="100%"
                 height="100%" />
              <use
                 x="92.299988"
                 xlink:href="#Neris-Thin-48"
                 id="use86"
                 style="stroke-linecap:butt;stroke-linejoin:round"
                 y="0"
                 width="100%"
                 height="100%" />
              <use
                 x="154.69998"
                 xlink:href="#Neris-Thin-48"
                 id="use88"
                 style="stroke-linecap:butt;stroke-linejoin:round"
                 y="0"
                 width="100%"
                 height="100%" />
              <use
                 x="217.09998"
                 xlink:href="#Neris-Thin-48"
                 id="use90"
                 style="stroke-linecap:butt;stroke-linejoin:round"
                 y="0"
                 width="100%"
                 height="100%" />
            </g>
          </g>
        </g>
        <g
           id="xtick_6"
           style="stroke-linecap:butt;stroke-linejoin:round">
          <g
             id="line2d_6"
             style="stroke-linecap:butt;stroke-linejoin:round">
            <path
               clip-path="url(#pdc0481f6d2)"
               d="m 389.19437,180.73125 v -166.32"
               style="fill:none;stroke:#ffffff;stroke-linecap:round;stroke-linejoin:round"
               id="path96"
               inkscape:connector-curvature="0" />
          </g>
          <g
             id="text_6"
             style="stroke-linecap:butt;stroke-linejoin:round">
            <!-- 12500 -->
            <g
               style="fill:#262626;stroke-linecap:butt;stroke-linejoin:round"
               transform="matrix(0.11,0,0,-0.11,374.36499,197.94156)"
               id="g109">
              <use
                 xlink:href="#Neris-Thin-49"
                 id="use99"
                 style="stroke-linecap:butt;stroke-linejoin:round"
                 x="0"
                 y="0"
                 width="100%"
                 height="100%" />
              <use
                 x="29.899994"
                 xlink:href="#Neris-Thin-50"
                 id="use101"
                 style="stroke-linecap:butt;stroke-linejoin:round"
                 y="0"
                 width="100%"
                 height="100%" />
              <use
                 x="86.299988"
                 xlink:href="#Neris-Thin-53"
                 id="use103"
                 style="stroke-linecap:butt;stroke-linejoin:round"
                 y="0"
                 width="100%"
                 height="100%" />
              <use
                 x="144.79997"
                 xlink:href="#Neris-Thin-48"
                 id="use105"
                 style="stroke-linecap:butt;stroke-linejoin:round"
                 y="0"
                 width="100%"
                 height="100%" />
              <use
                 x="207.19997"
                 xlink:href="#Neris-Thin-48"
                 id="use107"
                 style="stroke-linecap:butt;stroke-linejoin:round"
                 y="0"
                 width="100%"
                 height="100%" />
            </g>
          </g>
        </g>
        <g
           id="xtick_7"
           style="stroke-linecap:butt;stroke-linejoin:round">
          <g
             id="line2d_7"
             style="stroke-linecap:butt;stroke-linejoin:round">
            <path
               clip-path="url(#pdc0481f6d2)"
               d="m 453.08619,180.73125 v -166.32"
               style="fill:none;stroke:#ffffff;stroke-linecap:round;stroke-linejoin:round"
               id="path113"
               inkscape:connector-curvature="0" />
          </g>
          <g
             id="text_7"
             style="stroke-linecap:butt;stroke-linejoin:round">
            <!-- 15000 -->
            <g
               style="fill:#262626;stroke-linecap:butt;stroke-linejoin:round"
               transform="matrix(0.11,0,0,-0.11,437.92682,197.94156)"
               id="g126">
              <use
                 xlink:href="#Neris-Thin-49"
                 id="use116"
                 style="stroke-linecap:butt;stroke-linejoin:round"
                 x="0"
                 y="0"
                 width="100%"
                 height="100%" />
              <use
                 x="29.899994"
                 xlink:href="#Neris-Thin-53"
                 id="use118"
                 style="stroke-linecap:butt;stroke-linejoin:round"
                 y="0"
                 width="100%"
                 height="100%" />
              <use
                 x="88.399979"
                 xlink:href="#Neris-Thin-48"
                 id="use120"
                 style="stroke-linecap:butt;stroke-linejoin:round"
                 y="0"
                 width="100%"
                 height="100%" />
              <use
                 x="150.79997"
                 xlink:href="#Neris-Thin-48"
                 id="use122"
                 style="stroke-linecap:butt;stroke-linejoin:round"
                 y="0"
                 width="100%"
                 height="100%" />
              <use
                 x="213.19997"
                 xlink:href="#Neris-Thin-48"
                 id="use124"
                 style="stroke-linecap:butt;stroke-linejoin:round"
                 y="0"
                 width="100%"
                 height="100%" />
            </g>
          </g>
        </g>
        <g
           id="xtick_8"
           style="stroke-linecap:butt;stroke-linejoin:round">
          <g
             id="line2d_8"
             style="stroke-linecap:butt;stroke-linejoin:round">
            <path
               clip-path="url(#pdc0481f6d2)"
               d="m 516.97802,180.73125 v -166.32"
               style="fill:none;stroke:#ffffff;stroke-linecap:round;stroke-linejoin:round"
               id="path130"
               inkscape:connector-curvature="0" />
          </g>
          <g
             id="text_8"
             style="stroke-linecap:butt;stroke-linejoin:round">
            <!-- 17500 -->
            <g
               style="fill:#262626;stroke-linecap:butt;stroke-linejoin:round"
               transform="matrix(0.11,0,0,-0.11,502.14865,197.94156)"
               id="g143">
              <use
                 xlink:href="#Neris-Thin-49"
                 id="use133"
                 style="stroke-linecap:butt;stroke-linejoin:round"
                 x="0"
                 y="0"
                 width="100%"
                 height="100%" />
              <use
                 x="29.899994"
                 xlink:href="#Neris-Thin-55"
                 id="use135"
                 style="stroke-linecap:butt;stroke-linejoin:round"
                 y="0"
                 width="100%"
                 height="100%" />
              <use
                 x="86.299988"
                 xlink:href="#Neris-Thin-53"
                 id="use137"
                 style="stroke-linecap:butt;stroke-linejoin:round"
                 y="0"
                 width="100%"
                 height="100%" />
              <use
                 x="144.79997"
                 xlink:href="#Neris-Thin-48"
                 id="use139"
                 style="stroke-linecap:butt;stroke-linejoin:round"
                 y="0"
                 width="100%"
                 height="100%" />
              <use
                 x="207.19997"
                 xlink:href="#Neris-Thin-48"
                 id="use141"
                 style="stroke-linecap:butt;stroke-linejoin:round"
                 y="0"
                 width="100%"
                 height="100%" />
            </g>
          </g>
        </g>
        <g
           id="text_9"
           style="stroke-linecap:butt;stroke-linejoin:round">
          <!-- Iteration -->
          <defs
             id="defs155">
            <path
               d="m 13.59375,67.5 c 0,0.5 -0.296875,0.796875 -0.796875,0.796875 H 10.09375 C 9.59375,68.296875 9.296875,68 9.296875,67.5 V 0.796875 C 9.296875,0.296875 9.59375,0 10.09375,0 h 2.703125 c 0.5,0 0.796875,0.296875 0.796875,0.796875 z"
               id="Neris-Thin-73"
               inkscape:connector-curvature="0"
               style="stroke-linecap:butt;stroke-linejoin:round" />
            <path
               d="M 15.296875,47.59375 V 61 c 0,0.59375 -0.390625,0.90625 -0.890625,0.703125 l -2.609375,-0.90625 c -0.5,-0.09375 -0.703125,-0.390625 -0.703125,-0.890625 v -12.3125 h -4.5 c -0.5,0 -0.796875,-0.296875 -0.796875,-0.796875 V 44.40625 c 0,-0.5 0.296875,-0.8125 0.796875,-0.8125 h 4.5 V 10.296875 C 11.09375,3.09375 14.90625,-1 21.296875,-1 c 1.5,0 3,0.296875 4.109375,0.796875 0.5,0.203125 0.59375,0.5 0.390625,1 L 24.90625,3.09375 C 24.703125,3.5 24.40625,3.703125 23.90625,3.5 23,3.203125 22.09375,3.09375 21.296875,3.09375 c -3.796875,0 -6,2.609375 -6,7.3125 v 33.1875 H 26.40625 c 0.5,0 0.796875,0.3125 0.796875,0.8125 v 2.390625 c 0,0.5 -0.296875,0.796875 -0.796875,0.796875 z"
               id="Neris-Thin-116"
               inkscape:connector-curvature="0"
               style="stroke-linecap:butt;stroke-linejoin:round" />
            <path
               d="m 40.203125,1.296875 c 0.5,0.109375 0.703125,0.5 0.5,1 L 40,4.59375 c -0.203125,0.5 -0.59375,0.703125 -1.09375,0.609375 L 36.5,4.40625 c -3.09375,-1 -6.203125,-1.3125 -9.90625,-1.3125 -9.1875,0 -15.1875,5.609375 -16.59375,15.5 l 21.40625,3.609375 c 8.5,1.5 12.6875,5.5 12.6875,12.09375 0,9 -6.5,14.296875 -17.5,14.296875 -13.09375,0 -21.1875,-9.5 -21.1875,-24.796875 C 5.40625,8.5 13.40625,-1 26.59375,-1 c 4,0 7.5,0.5 11.109375,1.59375 z M 9.59375,22.5 c 0.109375,14.59375 6.3125,22 17,22 8.40625,0 13.3125,-3.703125 13.3125,-10.203125 0,-4.296875 -3.203125,-7.09375 -9.3125,-8.203125 z"
               id="Neris-Thin-101"
               inkscape:connector-curvature="0"
               style="stroke-linecap:butt;stroke-linejoin:round" />
            <path
               d="m 30.796875,47.796875 c 0,0.5 -0.296875,0.796875 -0.796875,0.796875 -7.796875,-0.296875 -13,-4.09375 -16.59375,-10.5 -0.40625,-0.59375 -1,-0.5 -1.109375,0.203125 v 8.5 c 0,0.5 -0.296875,0.796875 -0.796875,0.796875 H 9.09375 c -0.5,0 -0.796875,-0.296875 -0.796875,-0.796875 v -46 C 8.296875,0.296875 8.59375,0 9.09375,0 h 2.609375 C 12.203125,0 12.5,0.296875 12.5,0.796875 v 17.5 C 12.5,34.40625 19.296875,44 30,44.5 c 0.5,0 0.796875,0.296875 0.796875,0.796875 z"
               id="Neris-Thin-114"
               inkscape:connector-curvature="0"
               style="stroke-linecap:butt;stroke-linejoin:round" />
            <path
               d="M 9.703125,46 C 9.203125,45.90625 9,45.5 9.09375,45 l 0.8125,-2.296875 c 0.09375,-0.5 0.5,-0.703125 1,-0.609375 l 3.5,1.203125 C 17,44 20.296875,44.5 24,44.5 c 9.296875,0 14.5,-5.703125 14.5,-15.40625 v -1.6875 H 22.09375 C 10.703125,27.296875 4.90625,21.5 4.90625,13.09375 4.90625,4.40625 10.59375,-1 20.296875,-1 c 8,0 13.296875,2.40625 16.90625,7.09375 0.796875,1.109375 1.59375,1.3125 1.703125,0 V 0.796875 C 38.90625,0.296875 39.203125,0 39.703125,0 H 42 c 0.5,0 0.796875,0.296875 0.796875,0.796875 V 29.09375 c 0,12 -7.203125,19.5 -18.703125,19.5 -4.296875,0 -8,-0.59375 -10.6875,-1.5 z M 38.5,23.40625 V 21.703125 C 38.5,10 31.796875,3 20.40625,3 13.09375,3 9.09375,6.796875 9.09375,13.203125 c 0,6 4.109375,10.203125 13,10.203125 z"
               id="Neris-Thin-97"
               inkscape:connector-curvature="0"
               style="stroke-linecap:butt;stroke-linejoin:round" />
            <path
               d="m 12.203125,70.59375 c -2,0 -3.203125,-1.1875 -3.203125,-3.1875 0,-2.203125 1.203125,-3.3125 3.203125,-3.3125 2,0 3.09375,1.109375 3.09375,3.3125 0,2 -1.09375,3.1875 -3.09375,3.1875 z m 3.09375,-23.796875 c 0,0.5 -0.296875,0.796875 -0.796875,0.796875 H 6.59375 c -0.5,0 -0.796875,-0.296875 -0.796875,-0.796875 V 44.40625 c 0,-0.5 0.296875,-0.8125 0.796875,-0.8125 h 4.5 V 0.796875 C 11.09375,0.296875 11.40625,0 11.90625,0 H 14.5 c 0.5,0 0.796875,0.296875 0.796875,0.796875 z"
               id="Neris-Thin-105"
               inkscape:connector-curvature="0"
               style="stroke-linecap:butt;stroke-linejoin:round" />
            <path
               d="m 26.59375,48.59375 c -13.09375,0 -21.1875,-9.5 -21.1875,-24.796875 C 5.40625,8.59375 13.5,-1 26.59375,-1 c 13.109375,0 21.203125,9.59375 21.203125,24.796875 0,15.296875 -8.09375,24.796875 -21.203125,24.796875 z m 0,-4.09375 C 37.203125,44.5 43.5,36.796875 43.5,23.796875 43.5,10.90625 37.203125,3.09375 26.59375,3.09375 c -10.59375,0 -17,7.8125 -17,20.703125 0,13 6.40625,20.703125 17,20.703125 z"
               id="Neris-Thin-111"
               inkscape:connector-curvature="0"
               style="stroke-linecap:butt;stroke-linejoin:round" />
            <path
               d="m 12.296875,46.796875 c 0,0.5 -0.296875,0.796875 -0.796875,0.796875 H 9.09375 c -0.5,0 -0.796875,-0.296875 -0.796875,-0.796875 v -46 C 8.296875,0.296875 8.59375,0 9.09375,0 h 2.609375 C 12.203125,0 12.5,0.296875 12.5,0.796875 V 22 c 0,14.296875 6.59375,22.5 17.796875,22.5 8.296875,0 13.296875,-5.90625 13.296875,-15.703125 v -28 C 43.59375,0.296875 43.90625,0 44.40625,0 h 2.5 c 0.5,0 0.796875,0.296875 0.796875,0.796875 V 29 c 0,12 -6.5,19.59375 -17.203125,19.59375 -8,0 -13.40625,-3.296875 -17.09375,-9 -0.5,-0.796875 -1.109375,-0.796875 -1.109375,0.109375 z"
               id="Neris-Thin-110"
               inkscape:connector-curvature="0"
               style="stroke-linecap:butt;stroke-linejoin:round" />
          </defs>
          <g
             style="fill:#262626;stroke-linecap:butt;stroke-linejoin:round"
             transform="matrix(0.12,0,0,-0.12,277.15766,212.66281)"
             id="g175">
            <use
               xlink:href="#Neris-Thin-73"
               id="use157"
               style="stroke-linecap:butt;stroke-linejoin:round"
               x="0"
               y="0"
               width="100%"
               height="100%" />
            <use
               x="22.899994"
               xlink:href="#Neris-Thin-116"
               id="use159"
               style="stroke-linecap:butt;stroke-linejoin:round"
               y="0"
               width="100%"
               height="100%" />
            <use
               x="54.999985"
               xlink:href="#Neris-Thin-101"
               id="use161"
               style="stroke-linecap:butt;stroke-linejoin:round"
               y="0"
               width="100%"
               height="100%" />
            <use
               x="104.49997"
               xlink:href="#Neris-Thin-114"
               id="use163"
               style="stroke-linecap:butt;stroke-linejoin:round"
               y="0"
               width="100%"
               height="100%" />
            <use
               x="140.69997"
               xlink:href="#Neris-Thin-97"
               id="use165"
               style="stroke-linecap:butt;stroke-linejoin:round"
               y="0"
               width="100%"
               height="100%" />
            <use
               x="190.79996"
               xlink:href="#Neris-Thin-116"
               id="use167"
               style="stroke-linecap:butt;stroke-linejoin:round"
               y="0"
               width="100%"
               height="100%" />
            <use
               x="222.89995"
               xlink:href="#Neris-Thin-105"
               id="use169"
               style="stroke-linecap:butt;stroke-linejoin:round"
               y="0"
               width="100%"
               height="100%" />
            <use
               x="246.49994"
               xlink:href="#Neris-Thin-111"
               id="use171"
               style="stroke-linecap:butt;stroke-linejoin:round"
               y="0"
               width="100%"
               height="100%" />
            <use
               x="299.59995"
               xlink:href="#Neris-Thin-110"
               id="use173"
               style="stroke-linecap:butt;stroke-linejoin:round"
               y="0"
               width="100%"
               height="100%" />
          </g>
        </g>
      </g>
      <g
         id="matplotlib.axis_2"
         style="stroke-linecap:butt;stroke-linejoin:round">
        <g
           id="ytick_1"
           style="stroke-linecap:butt;stroke-linejoin:round">
          <g
             id="line2d_9"
             style="stroke-linecap:butt;stroke-linejoin:round">
            <path
               clip-path="url(#pdc0481f6d2)"
               d="M 47.367969,176.26809 H 549.56797"
               style="fill:none;stroke:#ffffff;stroke-linecap:round;stroke-linejoin:round"
               id="path179"
               inkscape:connector-curvature="0" />
          </g>
          <g
             id="text_10"
             style="stroke-linecap:butt;stroke-linejoin:round">
            <!-- 0.00 -->
            <defs
               id="defs183">
              <path
                 d="m 10.59375,6.90625 c -2.390625,0 -3.6875,-1.5 -3.6875,-3.90625 0,-2.5 1.296875,-4 3.6875,-4 2.40625,0 3.8125,1.5 3.8125,4 0,2.40625 -1.40625,3.90625 -3.8125,3.90625 z"
                 id="Neris-Thin-46"
                 inkscape:connector-curvature="0"
                 style="stroke-linecap:butt;stroke-linejoin:round" />
            </defs>
            <g
               style="fill:#262626;stroke-linecap:butt;stroke-linejoin:round"
               transform="matrix(0.11,0,0,-0.11,14.93125,180.12325)"
               id="g193">
              <use
                 xlink:href="#Neris-Thin-48"
                 id="use185"
                 style="stroke-linecap:butt;stroke-linejoin:round"
                 x="0"
                 y="0"
                 width="100%"
                 height="100%" />
              <use
                 x="62.399994"
                 xlink:href="#Neris-Thin-46"
                 id="use187"
                 style="stroke-linecap:butt;stroke-linejoin:round"
                 y="0"
                 width="100%"
                 height="100%" />
              <use
                 x="83.699982"
                 xlink:href="#Neris-Thin-48"
                 id="use189"
                 style="stroke-linecap:butt;stroke-linejoin:round"
                 y="0"
                 width="100%"
                 height="100%" />
              <use
                 x="146.09998"
                 xlink:href="#Neris-Thin-48"
                 id="use191"
                 style="stroke-linecap:butt;stroke-linejoin:round"
                 y="0"
                 width="100%"
                 height="100%" />
            </g>
          </g>
        </g>
        <g
           id="ytick_2"
           style="stroke-linecap:butt;stroke-linejoin:round">
          <g
             id="line2d_10"
             style="stroke-linecap:butt;stroke-linejoin:round">
            <path
               clip-path="url(#pdc0481f6d2)"
               d="M 47.367969,148.13404 H 549.56797"
               style="fill:none;stroke:#ffffff;stroke-linecap:round;stroke-linejoin:round"
               id="path197"
               inkscape:connector-curvature="0" />
          </g>
          <g
             id="text_11"
             style="stroke-linecap:butt;stroke-linejoin:round">
            <!-- 0.05 -->
            <g
               style="fill:#262626;stroke-linecap:butt;stroke-linejoin:round"
               transform="matrix(0.11,0,0,-0.11,15.360937,151.9892)"
               id="g208">
              <use
                 xlink:href="#Neris-Thin-48"
                 id="use200"
                 style="stroke-linecap:butt;stroke-linejoin:round"
                 x="0"
                 y="0"
                 width="100%"
                 height="100%" />
              <use
                 x="62.399994"
                 xlink:href="#Neris-Thin-46"
                 id="use202"
                 style="stroke-linecap:butt;stroke-linejoin:round"
                 y="0"
                 width="100%"
                 height="100%" />
              <use
                 x="83.699982"
                 xlink:href="#Neris-Thin-48"
                 id="use204"
                 style="stroke-linecap:butt;stroke-linejoin:round"
                 y="0"
                 width="100%"
                 height="100%" />
              <use
                 x="146.09998"
                 xlink:href="#Neris-Thin-53"
                 id="use206"
                 style="stroke-linecap:butt;stroke-linejoin:round"
                 y="0"
                 width="100%"
                 height="100%" />
            </g>
          </g>
        </g>
        <g
           id="ytick_3"
           style="stroke-linecap:butt;stroke-linejoin:round">
          <g
             id="line2d_11"
             style="stroke-linecap:butt;stroke-linejoin:round">
            <path
               clip-path="url(#pdc0481f6d2)"
               d="M 47.367969,119.99999 H 549.56797"
               style="fill:none;stroke:#ffffff;stroke-linecap:round;stroke-linejoin:round"
               id="path212"
               inkscape:connector-curvature="0" />
          </g>
          <g
             id="text_12"
             style="stroke-linecap:butt;stroke-linejoin:round">
            <!-- 0.10 -->
            <g
               style="fill:#262626;stroke-linecap:butt;stroke-linejoin:round"
               transform="matrix(0.11,0,0,-0.11,18.50625,123.85515)"
               id="g223">
              <use
                 xlink:href="#Neris-Thin-48"
                 id="use215"
                 style="stroke-linecap:butt;stroke-linejoin:round"
                 x="0"
                 y="0"
                 width="100%"
                 height="100%" />
              <use
                 x="62.399994"
                 xlink:href="#Neris-Thin-46"
                 id="use217"
                 style="stroke-linecap:butt;stroke-linejoin:round"
                 y="0"
                 width="100%"
                 height="100%" />
              <use
                 x="83.699982"
                 xlink:href="#Neris-Thin-49"
                 id="use219"
                 style="stroke-linecap:butt;stroke-linejoin:round"
                 y="0"
                 width="100%"
                 height="100%" />
              <use
                 x="113.59998"
                 xlink:href="#Neris-Thin-48"
                 id="use221"
                 style="stroke-linecap:butt;stroke-linejoin:round"
                 y="0"
                 width="100%"
                 height="100%" />
            </g>
          </g>
        </g>
        <g
           id="ytick_4"
           style="stroke-linecap:butt;stroke-linejoin:round">
          <g
             id="line2d_12"
             style="stroke-linecap:butt;stroke-linejoin:round">
            <path
               clip-path="url(#pdc0481f6d2)"
               d="M 47.367969,91.86594 H 549.56797"
               style="fill:none;stroke:#ffffff;stroke-linecap:round;stroke-linejoin:round"
               id="path227"
               inkscape:connector-curvature="0" />
          </g>
          <g
             id="text_13"
             style="stroke-linecap:butt;stroke-linejoin:round">
            <!-- 0.15 -->
            <g
               style="fill:#262626;stroke-linecap:butt;stroke-linejoin:round"
               transform="matrix(0.11,0,0,-0.11,18.935937,95.721096)"
               id="g238">
              <use
                 xlink:href="#Neris-Thin-48"
                 id="use230"
                 style="stroke-linecap:butt;stroke-linejoin:round"
                 x="0"
                 y="0"
                 width="100%"
                 height="100%" />
              <use
                 x="62.399994"
                 xlink:href="#Neris-Thin-46"
                 id="use232"
                 style="stroke-linecap:butt;stroke-linejoin:round"
                 y="0"
                 width="100%"
                 height="100%" />
              <use
                 x="83.699982"
                 xlink:href="#Neris-Thin-49"
                 id="use234"
                 style="stroke-linecap:butt;stroke-linejoin:round"
                 y="0"
                 width="100%"
                 height="100%" />
              <use
                 x="113.59998"
                 xlink:href="#Neris-Thin-53"
                 id="use236"
                 style="stroke-linecap:butt;stroke-linejoin:round"
                 y="0"
                 width="100%"
                 height="100%" />
            </g>
          </g>
        </g>
        <g
           id="ytick_5"
           style="stroke-linecap:butt;stroke-linejoin:round">
          <g
             id="line2d_13"
             style="stroke-linecap:butt;stroke-linejoin:round">
            <path
               clip-path="url(#pdc0481f6d2)"
               d="M 47.367969,63.731888 H 549.56797"
               style="fill:none;stroke:#ffffff;stroke-linecap:round;stroke-linejoin:round"
               id="path242"
               inkscape:connector-curvature="0" />
          </g>
          <g
             id="text_14"
             style="stroke-linecap:butt;stroke-linejoin:round">
            <!-- 0.20 -->
            <g
               style="fill:#262626;stroke-linecap:butt;stroke-linejoin:round"
               transform="matrix(0.11,0,0,-0.11,15.59125,67.587044)"
               id="g253">
              <use
                 xlink:href="#Neris-Thin-48"
                 id="use245"
                 style="stroke-linecap:butt;stroke-linejoin:round"
                 x="0"
                 y="0"
                 width="100%"
                 height="100%" />
              <use
                 x="62.399994"
                 xlink:href="#Neris-Thin-46"
                 id="use247"
                 style="stroke-linecap:butt;stroke-linejoin:round"
                 y="0"
                 width="100%"
                 height="100%" />
              <use
                 x="83.699982"
                 xlink:href="#Neris-Thin-50"
                 id="use249"
                 style="stroke-linecap:butt;stroke-linejoin:round"
                 y="0"
                 width="100%"
                 height="100%" />
              <use
                 x="140.09998"
                 xlink:href="#Neris-Thin-48"
                 id="use251"
                 style="stroke-linecap:butt;stroke-linejoin:round"
                 y="0"
                 width="100%"
                 height="100%" />
            </g>
          </g>
        </g>
        <g
           id="ytick_6"
           style="stroke-linecap:butt;stroke-linejoin:round">
          <g
             id="line2d_14"
             style="stroke-linecap:butt;stroke-linejoin:round">
            <path
               clip-path="url(#pdc0481f6d2)"
               d="M 47.367969,35.597836 H 549.56797"
               style="fill:none;stroke:#ffffff;stroke-linecap:round;stroke-linejoin:round"
               id="path257"
               inkscape:connector-curvature="0" />
          </g>
          <g
             id="text_15"
             style="stroke-linecap:butt;stroke-linejoin:round">
            <!-- 0.25 -->
            <g
               style="fill:#262626;stroke-linecap:butt;stroke-linejoin:round"
               transform="matrix(0.11,0,0,-0.11,16.020937,39.452992)"
               id="g268">
              <use
                 xlink:href="#Neris-Thin-48"
                 id="use260"
                 style="stroke-linecap:butt;stroke-linejoin:round"
                 x="0"
                 y="0"
                 width="100%"
                 height="100%" />
              <use
                 x="62.399994"
                 xlink:href="#Neris-Thin-46"
                 id="use262"
                 style="stroke-linecap:butt;stroke-linejoin:round"
                 y="0"
                 width="100%"
                 height="100%" />
              <use
                 x="83.699982"
                 xlink:href="#Neris-Thin-50"
                 id="use264"
                 style="stroke-linecap:butt;stroke-linejoin:round"
                 y="0"
                 width="100%"
                 height="100%" />
              <use
                 x="140.09998"
                 xlink:href="#Neris-Thin-53"
                 id="use266"
                 style="stroke-linecap:butt;stroke-linejoin:round"
                 y="0"
                 width="100%"
                 height="100%" />
            </g>
          </g>
        </g>
        <g
           id="text_16"
           style="stroke-linecap:butt;stroke-linejoin:round">
          <!-- Loss -->
          <defs
             id="defs274">
            <path
               d="m 13.59375,4 v 63.5 c 0,0.5 -0.296875,0.796875 -0.796875,0.796875 H 10.09375 C 9.59375,68.296875 9.296875,68 9.296875,67.5 V 0.796875 C 9.296875,0.296875 9.59375,0 10.09375,0 h 39 c 0.5,0 0.8125,0.296875 0.8125,0.796875 v 2.40625 c 0,0.5 -0.3125,0.796875 -0.8125,0.796875 z"
               id="Neris-Thin-76"
               inkscape:connector-curvature="0"
               style="stroke-linecap:butt;stroke-linejoin:round" />
            <path
               d="m 29.296875,20.796875 c 5.296875,-1.5 7.609375,-4.09375 7.609375,-8.390625 0,-5.8125 -5,-9.3125 -13.609375,-9.3125 -6.203125,0 -10.390625,0.703125 -13.59375,2 l -2,0.8125 C 7.296875,6.09375 6.90625,6 6.703125,5.5 l -1,-2.203125 c -0.203125,-0.390625 0,-0.796875 0.5,-1 l 2,-0.796875 C 11.90625,0 17,-1 23.296875,-1 34.59375,-1 41.09375,4 41.09375,12.40625 41.09375,18.59375 38,22.5 30.59375,24.5 l -12.296875,3.59375 c -5.203125,1.5 -7.5,4.109375 -7.5,8.203125 0,5 4.703125,8.203125 12.5,8.203125 3.703125,0 7.5,-0.5 10.109375,-1.296875 l 3.5,-1.109375 c 0.5,-0.09375 0.890625,0.109375 1,0.5 l 0.796875,2.3125 c 0.203125,0.5 0,0.890625 -0.5,1 L 34.5,47.09375 c -2.90625,0.90625 -7,1.5 -11.296875,1.5 -10.5,0 -16.609375,-4.6875 -16.609375,-12.296875 0,-6.203125 3.3125,-10 10.203125,-11.890625 z"
               id="Neris-Thin-115"
               inkscape:connector-curvature="0"
               style="stroke-linecap:butt;stroke-linejoin:round" />
          </defs>
          <g
             style="fill:#262626;stroke-linecap:butt;stroke-linejoin:round"
             transform="matrix(0,-0.12,-0.12,0,8.41125,109.68469)"
             id="g284">
            <use
               xlink:href="#Neris-Thin-76"
               id="use276"
               style="stroke-linecap:butt;stroke-linejoin:round"
               x="0"
               y="0"
               width="100%"
               height="100%" />
            <use
               x="55.799988"
               xlink:href="#Neris-Thin-111"
               id="use278"
               style="stroke-linecap:butt;stroke-linejoin:round"
               y="0"
               width="100%"
               height="100%" />
            <use
               x="108.89998"
               xlink:href="#Neris-Thin-115"
               id="use280"
               style="stroke-linecap:butt;stroke-linejoin:round"
               y="0"
               width="100%"
               height="100%" />
            <use
               x="155.39996"
               xlink:href="#Neris-Thin-115"
               id="use282"
               style="stroke-linecap:butt;stroke-linejoin:round"
               y="0"
               width="100%"
               height="100%" />
          </g>
        </g>
      </g>
      <g
         id="line2d_15"
         style="stroke-linecap:butt;stroke-linejoin:round">
        <path
           clip-path="url(#pdc0481f6d2)"
           d="m 70.195241,164.08801 0.613362,1.02067 0.07667,8.06257 0.664475,-12.42613 0.587805,-9.99447 1.635631,19.51123 1.814528,-39.71587 0.127784,-38.526954 0.536691,-14.754952 0.460021,-21.30694 0.894486,-4.631829 0.05111,3.251657 0.204454,0.0448 0.741145,-2.6303 0.511135,-3.294896 1.916755,2.687508 0.460021,7.850904 0.357794,2.335078 1.584517,6.594564 0.690032,-9.053156 0.408908,2.393351 0.178897,18.945953 0.02556,-8.778677 0.843372,-8.385205 0.357794,0.01456 0.204454,-2.319222 0.127784,21.801655 0.357794,-11.888492 0.255567,6.057489 1.303394,-8.237954 0.204453,4.836103 0.664475,-13.223521 0.230011,0.452768 0.15334,14.289825 0.357795,1.727446 0.23001,-4.136803 0.204454,-3.108314 0.15334,8.920385 0.715589,-31.39353 2.785684,25.117111 0.434464,-3.140921 0.230011,9.46063 0.02556,-1.653133 0.153341,-20.393932 0.15334,16.692072 0.460021,14.674711 0.07667,-7.112539 1.48229,-20.507795 0.230011,22.289707 0.15334,-4.976261 0.383351,3.250408 0.15334,-10.887437 0.127784,9.955623 1.32895,-1.146795 0.153341,-10.155982 0.460021,19.677383 0.332233,-1.871493 1.30339,-0.82486 0.43447,-0.621165 1.40562,-30.001988 0.0767,10.677596 0.35779,20.019618 0.10223,-17.293549 1.22672,2.036946 0.1789,-7.834931 0.56225,8.610247 0.30668,12.754051 0.25557,2.249739 0.7667,5.272606 0.28112,-15.757951 0.20446,-4.620276 0.15334,3.32135 0.81781,8.169494 0.74115,-17.892378 0.81781,18.674292 0.5367,-13.587992 0.89448,1.327475 1.07338,5.493951 0.23001,-1.64515 0.15334,12.13738 0.12779,-9.479236 0.1789,12.62788 0.23,-14.538495 0.3578,22.755127 0.12778,-35.65004 0.23001,10.099763 0.89449,13.718457 1.15005,-5.887784 0.46002,0.02329 0.23001,7.194457 0.33224,4.585555 0.28113,-11.510372 1.45673,11.937936 0.33224,-22.874012 0.51113,9.400479 0.86893,8.112688 0.89449,-12.048705 0.9456,1.515785 0.0767,11.131144 0.0256,-5.881713 0.20446,-23.324501 0.10222,33.590195 0.1789,-0.760257 1.35451,-23.655726 0.17889,28.130688 0.23001,-12.857366 0.56225,-19.716623 0.10223,30.983498 0.51113,-18.259389 0.51114,0.666366 0.15334,-4.619428 0.12778,18.622123 0.38335,-12.74996 0.12779,3.083596 0.48557,8.215165 0.40891,-14.039385 0.25557,14.352885 0.30668,-8.066271 0.66448,-1.320792 0.23001,17.573955 0.89448,-17.584285 0.0256,12.402527 0.0511,-10.10689 1.1245,10.17436 0.20445,-24.621849 0.23001,7.037598 0.0511,-2.065228 0.12778,10.292055 0.63892,-1.502654 0.0256,0.162468 0.25557,12.465059 0.1789,-14.900995 0.35779,2.14961 0.15334,9.953637 0.23001,-10.48662 0.38336,-9.695567 0.15334,23.480504 1.3545,0.688795 2.01898,-11.087679 0.12779,-23.66193 0.33224,30.573567 0.94559,-7.476859 0.3578,10.489538 0.89448,-10.791728 2.12121,3.444285 0.61336,-10.620723 0.61337,5.745355 1.20116,-7.96922 0.20446,22.080494 1.40562,-22.016033 0.28112,9.701285 1.48229,0.786677 1.43118,-11.671867 0.15334,-6.481632 0.40891,23.257809 0.46002,-11.162612 0.0256,2.575238 0.86893,-0.737425 0.25557,5.184617 0.15334,-13.741958 0.0256,8.773311 0.63892,24.803965 0.84337,-35.730911 1.02227,12.954058 0.79226,8.500886 0.81781,-7.205038 0.56225,-0.681509 0.48558,-4.157588 0.38335,11.70829 0.40891,-8.615898 0.74114,12.044244 0.0767,5.381086 0.63892,-15.120621 1.61007,-3.595376 0.46002,-3.475543 0.0511,0.894763 0.20445,-5.689119 0.71559,1.160403 0.3578,14.577467 1.43117,-13.568766 0.10223,17.513788 0.28112,-10.729279 1.32895,7.672346 0.12779,-9.735159 0.4089,-3.174678 0.12779,20.366589 0.0511,-16.639106 0.25557,12.861726 0.84337,-22.077769 0.30668,-4.324442 1.32895,22.93538 0.28113,-8.375747 0.43446,5.668351 0.71559,-10.770464 0.97115,0.335602 0.3578,4.882655 1.45673,-8.352413 0.12779,-5.737792 0.28112,4.061174 1.86564,13.254251 0.28113,-9.752842 0.0256,-7.47145 0.0511,7.286562 0.12778,0.105872 0.0256,25.320257 0.63891,-26.898365 0.12779,13.856048 0.28112,-16.610674 0.51114,5.409543 0.0767,5.957569 0.4089,-1.3915 0.56225,1.322914 0.33224,9.099455 0.0511,-15.89966 1.27784,4.814908 0.61336,-1.402342 0.1789,4.995873 0.7667,-3.190408 0.0767,13.690535 1.50785,-20.372198 0.43446,-17.192457 0.61336,27.5683 1.15006,-8.84012 0.0767,-5.25696 0.40891,4.394956 0.79225,3.484146 0.71559,-16.005709 0.30668,24.37219 0.20446,-19.107985 0.9456,3.928244 0.12778,5.986328 0.81782,-12.407264 0.20445,12.798322 0.23001,6.080756 0.51113,-6.645023 0.0256,-3.943663 0.3578,11.868234 0.97115,-10.736271 0.30668,-10.966379 0.48558,18.377427 0.5878,-2.396814 0.51114,-0.869902 1.22672,0.980604 0.23001,0.342327 0.0767,-5.517747 1.94231,-0.801953 0.0511,-14.780978 0.0256,14.263103 1.3545,8.247051 0.51114,-11.995395 0.20445,-10.123274 1.68674,8.604386 0.20446,-4.263988 0.79226,12.743805 1.27783,-1.364552 1.02227,-5.093813 0.40891,-7.11461 0.35779,10.309789 0.5367,1.048829 1.58451,-8.537527 0.12779,-2.022768 1.22672,12.91714 0.51113,-19.127405 0.0511,12.998572 0.81781,0.834142 0.61337,-1.390117 0.35779,-10.376849 1.09894,-0.677266 0.71559,12.564081 0.0511,-9.252398 0.10223,7.568183 0.38335,2.390064 1.04782,-1.37058 0.0767,-4.055363 1.3545,10.941267 0.79226,-6.214415 0.0256,-14.5883 0.43446,18.130526 0.0767,-6.515154 0.86893,6.522717 0.0511,-2.738612 0.1789,6.544114 0.92004,-1.913693 0.5367,-3.800237 0.61336,2.626862 0.12778,1.242774 0.15334,-14.741881 0.69003,15.886304 0.51114,-2.402968 0.12778,-5.046121 0.38335,-0.248688 0.12779,1.050331 1.09894,1.300619 0.63891,-11.248738 0.0511,8.949588 0.40891,-12.889697 0.25556,24.882586 1.27784,-17.609733 0.48558,0.95992 0.28112,2.037223 0.0511,5.577143 0.15334,-6.192086 0.33224,9.49115 0.46002,-20.525822 0.99672,19.273934 0.5878,-2.122109 0.74115,-6.918839 0.28112,1.842684 0.28112,12.289024 0.33224,2.089921 0.61336,-6.026239 2.42789,-13.696397 0.0256,0.85533 0.10223,10.502258 0.51113,-5.020934 0.0256,-6.466799 0.23001,0.573775 1.12449,0.690505 0.1789,-3.81392 0.0767,12.564433 0.48558,-3.855784 1.38006,2.752597 0.23001,-3.785069 0.0511,-8.820407 0.10222,8.408254 0.15334,-0.102485 0.0767,1.956287 0.1789,-17.420551 0.20446,7.971148 0.0767,8.347867 0.30668,2.451213 0.69003,-8.58672 0.10222,-4.533763 0.28113,10.441478 2.01898,0.287759 0.35779,15.147788 0.20446,-24.259929 0.35779,0.828231 0.0256,4.470921 0.66447,5.379962 0.99672,-0.834385 0.74114,-7.977487 0.0767,-22.970745 0.66448,28.549188 0.46002,3.77229 0.10223,-6.291586 0.63891,8.961889 1.32896,-9.574334 0.38335,18.239383 0.20445,-12.432217 0.0256,-10.815824 0.56224,10.804027 0.46002,-6.889433 1.02227,-3.239198 0.5367,15.885825 0.79225,-22.887872 1.35451,9.051713 0.28113,2.723142 0.71558,-3.513818 0.0256,11.460366 0.48558,-9.576984 0.5878,1.041846 0.48558,-12.008526 0.99671,7.758665 0.0767,8.745097 0.1789,-5.667236 0.25557,0.854089 0.0767,3.824007 0.12778,-2.468234 0.25557,-0.603926 0.84337,5.003637 0.48558,-10.590196 2.01898,-1.17812 0.89449,9.943198 0.43446,-9.200322 0.25557,6.295342 0.12778,-11.965722 0.28113,10.438149 0.15334,-4.665787 0.63891,11.799975 0.12779,-9.239209 0.12778,2.711177 0.46002,2.652083 0.28113,6.000071 0.0767,-49.372085 0.51113,43.565581 0.46002,-4.687084 0.89449,-1.12518 0.12778,2.6399 1.55896,3.498801 0.0256,-8.188208 0.81782,10.792172 1.30339,-8.446932 0.23001,7.249527 0.86893,-10.982888 0.28112,-1.85303 0.30668,8.169066 0.43447,4.551363 1.5334,-12.929499 0.61336,-1.13416 0.7667,9.200087 0.10223,-10.263791 0.3578,3.807229 0.43446,8.505037 0.15334,0.641993 1.07338,-5.55811 0.40891,11.700685 0.28113,-12.670381 0.23001,6.487233 0.20445,-1.347901 0.51114,6.939054 0.0511,-17.353004 0.0767,4.283583 0.20445,9.204531 0.51114,-5.316575 0.0767,1.719799 0.12778,-10.212578 0.23001,9.687836 2.30011,0.280725 0.0256,-5.872138 0.0511,7.624126 0.71559,-10.542512 0.25556,13.323508 0.38335,-6.819473 1.09894,-0.990942 0.1789,1.903564 0.48558,-4.770838 0.23001,4.554323 0.84337,-0.225278 0.0256,-7.169672 0.23001,11.589078 0.97115,-6.629436 0.20446,5.235655 0.12778,-8.834594 0.81782,9.186102 1.20116,2.23567 0.10223,-18.47743 0.58781,21.867433 0.46002,-14.967552 0.0767,5.940565 0.53669,-8.838107 0.28112,0.07653 0.61336,4.431429 0.1789,9.762828 0.43447,-9.41179 0.12778,3.844851 0.53669,1.161158 0.0511,-6.34882 0.12779,2.292006 0.28112,-3.036215 0.30668,1.580456 0.43447,-3.922073 0.46002,-0.6787 0.15334,6.800867 0.25557,-8.517488 0.48557,9.29521 0.69004,3.949918 0.20445,-9.445437 0.53669,3.904541 0.53669,-1.940423 1.27784,8.613743 0.1789,-10.844441 1.38006,4.973468 0.25557,-2.923844 0.17889,-4.399056 0.69004,3.740957 0.53669,-3.559892 0.25556,6.101298 0.40891,-3.428413 0.23001,-4.207845 0.81782,6.453107 0.53669,-4.253927 1.09894,3.845387 0.0767,1.006379 0.51113,-0.475625 0.1789,1.165954 0.66448,1.001566 1.78897,-8.109292 0.23001,2.137276 0.1789,-0.941331 0.33223,-4.897688 0.56225,0.826839 0.28112,9.753186 0.69004,-11.018691 0.61336,2.508203 0.15334,-2.319633 0.5878,2.257923 0.46002,3.545177 1.78897,-6.443231 0.23002,3.992043 0.89448,1.29631 0.71559,1.259886 0.0767,1.990731 1.02227,-6.543845 0.61336,4.459056 1.66119,1.932483 1.99342,-3.109731 0.12779,-5.16878 0.0767,2.56023 0.35779,-0.930641 0.30668,2.653928 0.58781,-4.025296 0.15334,5.481097 0.38335,-6.007684 0.15334,3.909907 0.25557,-4.185508 0.61336,4.654434 0.43446,0.924855 0.56225,2.819574 0.97116,-5.857726 0.28112,1.190354 0.51114,-2.994519 0.17889,6.55426 0.12779,-2.235645 1.99342,-2.064431 0.84337,2.828645 0.38335,0.661168 0.28113,2.638969 0.74114,-6.519094 0.3578,5.416184 0.28112,-3.829281 0.25557,-0.349076 0.10223,0.493316 0.0256,1.52822 0.71559,-3.264805 0.23001,2.557136 0.58781,-0.633825 0.0256,4.383033 0.30668,-2.582893 0.79226,-0.07855 0.23001,-2.490378 0.43447,3.308229 0.12778,-4.687663 0.23001,1.065314 0.20446,-1.146158 0.20445,1.241524 0.43446,0.3066 0.76671,3.966117 0.25556,-5.394761 0.9456,-1.965887 0.23001,8.288589 0.0256,-4.292404 0.56225,-0.22464 0.17889,-0.821205 0.71559,-1.241173 0.0256,2.789473 0.23001,0.618557 0.12778,1.262294 0.28113,-0.980613 0.23001,-1.442671 0.35779,-1.172109 0.97116,2.349458 0.0767,-4.46485 0.23001,3.499866 0.63892,-1.340396 0.10222,0.790257 0.23002,-0.766394 0.35779,2.606403 0.15334,-0.387192 0.0511,-4.447083 0.86893,4.395828 0.15334,-1.325362 0.15334,-0.07871 0.0511,-1.724712 0.28112,-0.477101 0.12778,1.51628 0.3578,2.296685 0.23001,-0.153548 1.04782,-3.515788 0.48558,4.36618 0.69003,-3.400425 0.69004,0.902451 0.63891,0.63505 0.0256,2.636319 1.58452,-2.562619 0.23001,-0.04132 0.97115,-1.347975 0.79226,2.804212 0.51114,-5.183133 0.48558,2.954733 0.79225,-1.603203 0.20446,3.407502 0.0511,-2.317713 0.86893,-0.779668 0.43447,0.172203 0.51113,-0.899567 0.71559,0.314574 0.0767,-0.106711 0.0256,0.111641 0.15334,2.767363 0.0511,-5.407825 0.43446,2.791418 0.20446,0.370231 0.23001,3.250726 0.38335,-0.621466 0.40891,-0.112186 0.99671,-1.665786 0.30668,1.779229 0.0511,3.376923 0.25557,-6.415427 0.28113,0.908128 0.35779,1.537057 0.0511,1.743393 0.43447,-3.278421 0.48558,-0.690254 0.92004,-2.220997 0.69003,5.765177 0.15334,-4.139537 0.23001,1.15399 0.7667,-1.319116 0.58781,2.611946 0.0255,1.228805 0.46002,-0.659927 0.71559,-2.624992 0.12779,1.555218 0.69003,-1.142914 0.33224,4.482324 0.0767,-3.797922 0.51113,0.822965 0.12779,-2.888361 0.35779,0.985644 0.25557,2.435114 0.12778,2.890533 0.1789,-5.779933 0.48558,5.258083 0.30668,-1.917231 0.89448,-1.80211 1.58452,-0.738223 0.38335,0.06247 0.28112,0.554088 0.10223,-1.529938 0.40891,2.331765 1.07338,-0.301149 1.1245,0.250817 0.51113,-2.052819 0.0767,3.762196 0.40891,-1.701932 0.40891,0.758731 1.81453,-4.118289 0.23001,0.966551 0.79226,1.5142 0.48557,4.785008 0.0767,-6.825652 0.56225,4.076643 1.66119,-3.640417 0.15334,-1.406894 0.0511,5.970808 0.53669,-4.259754 0.56225,4.069348 0.74115,-3.712676 1.17561,1.899062 0.71559,-0.583183 1.50784,-0.474191 0.40891,-0.75723 0.79226,0.574488 0.20445,0.408657 0.5367,-2.245656 0.7667,2.570568 0.33223,-0.349504 0.33224,-3.040525 0.15334,2.60611 1.09894,-0.181753 0.51114,-0.702076 1.48229,-4.547858 0.43446,8.660899 0.69003,-1.387459 0.23001,-3.400894 0.30668,-0.611665 0.30668,6.907276 0.38336,-4.407332 0.10222,2.937008 0.43447,-0.65176 0.46002,-2.719621 0.46002,0.629508 0.38335,-0.240873 0.25557,0.325524 0.0767,1.191896 0.30668,-0.572509 0.12778,0.598224 0.71559,-1.446385 0.66448,1.361475 0.84337,-3.793035 0.38335,0.984327 0.92004,3.520007 0.12778,-4.31651 1.22673,4.547137 0.10223,-3.96045 0.51113,2.928959 1.25228,-1.448305 0.66447,1.416461 0.0767,-1.128719 1.07339,2.611007 0.40891,-2.210424 1.27783,0.305644 0.20446,0.880022 0.15334,-0.196484 1.27783,-3.701558 0.0767,-2.083465 0.0767,3.061637 0.33224,4.388182 0.69003,-4.129131 0.63892,6.072438 0.1789,-3.025038 0.56225,-0.572559 0.53669,1.121432 0.33223,-1.927385 0.89449,-1.275474 0.5878,2.949468 0.0767,-1.802564 0.33224,1.572046 0.25557,-1.650945 1.09894,2.191131 0.0256,-2.179711 0.48557,-0.793536 0.0767,0.354401 0.20446,3.66075 0.0256,-3.053848 0.0256,3.007968 0.15334,-4.590385 0.51114,0.719139 0.0511,0.332324 1.73786,2.199532 0.35779,-4.488797 0.15334,1.186103 0.86893,1.143081 1.04783,2.012002 0.71559,-0.07685 0.69003,-3.111022 0.12778,0.85424 0.15334,2.220997 0.58781,-0.11663 0.9456,-1.198 0.0255,-0.721034 0.15334,2.242243 0.23001,0.376997 0.74115,-2.845054 0.15334,4.091215 0.61336,-4.000427 0.61336,0.383327 0.28113,1.244342 1.27783,-0.348296 0.61336,-2.673028 0.58781,-0.526435 0.92004,1.363244 0.61336,1.275155 0.0511,-0.33094 0.0256,1.028556 1.53341,0.947862 1.30339,-4.136836 0.23001,0.71389 0.10223,2.744917 0.15334,-1.104638 0.40891,4.258933 1.09894,-6.861957 0.30668,3.057864 0.53669,1.453848 0.0256,1.85308 0.10223,-5.459758 0.10223,2.07471 0.10222,-2.074752 0.43447,3.055415 0.15334,-1.064131 0.10223,4.396021 0.0511,-4.042418 0.63892,-2.096955 0.48558,1.486917 0.17889,3.372597 0.0256,-5.221997 0.48558,1.800878 0.81781,1.986396 0.0256,2.809487 0.0256,-3.412491 0.61336,0.936015 0.35779,-6.766138 1.3034,4.101621 0.30668,-1.503635 1.61007,2.090876 1.07338,-1.064761 0.10223,4.005894 1.1245,-6.145275 0.0511,3.029189 0.43446,2.512965 0.9456,-0.775575 0.76671,3.659559 0.12778,-6.053103 0.0511,2.094876 0.25557,0.336465 0.46002,3.152728 0.58781,-3.029742 0.43446,-0.186113 0.15334,-4.369861 0.1789,4.993943 1.20117,0.297125 0.12778,-4.947493 0.40891,-0.139494 0.15334,4.123161 0.25556,-3.262054 0.46003,2.461517 0.17889,-1.046893 0.25557,-2.176457 0.0511,3.728481 0.33224,-0.328777 0.48558,0.351365 0.51113,-2.598246 0.28113,2.935927 1.20116,-0.58958 0.30668,1.169107 0.28113,-2.573066 1.63563,6.040367 0.79226,-4.352027 0.9456,1.023994 0.61336,-3.574732 0.23001,-0.209716 0.15334,0.541067 0.38335,0.760223 0.43446,-0.271217 0.3578,-3.549101 0.0767,2.09792 0.48558,1.641235 0.48557,-1.151809 2.04454,1.232234 0.84338,-0.503453 0.20445,-1.645243 0.15334,2.610218 0.61336,-1.876507 0.0256,2.245488 0.17889,-0.576995 0.79226,-0.91761 0.69004,-1.683645 0.30668,2.171377 0.43446,-0.32295 0.10223,2.078107 1.50785,-1.953587 0.33223,0.978181 0.3578,-5.612576 0.15334,5.897896 0.48557,-2.414673 0.56225,-1.438731 0.33224,5.458443 1.50785,0.01231 0.56225,-4.916361 0.10222,6.668776 0.0511,-2.721591 0.0256,0.244822 0.25557,-1.662339 0.51113,1.951843 0.66448,-3.68769 0.86893,1.335449 0.23001,3.389676 1.43118,-5.610338 1.38006,2.527219 0.66447,-2.074819 0.12779,1.066185 0.51113,-1.238573 1.3034,0.566799 0.10222,3.055265 0.81782,-0.497852 1.25228,-1.928031 0.51113,2.914957 0.81782,-2.004322 0.25557,0.567218 0.0256,2.133168 0.63892,-2.12885 0.12778,-2.170983 0.10223,0.797208 0.3578,-1.658801 1.07338,5.068466 0.38335,-5.80621 0.25557,0.922842 1.91675,-1.574988 1.7123,4.604479 0.79226,0.835567 0.86893,-0.460314 0.0256,1.550488 0.56225,-4.396415 0.97115,-0.07562 0.12778,1.810453 0.12779,-0.04506 0.25557,1.695056 0.69003,-1.386679 0.0256,-2.192464 0.1789,0.805048 0.3578,1.01597 0.28112,-3.657522 0.46002,1.377665 0.0511,-0.04828 0.58781,4.665041 0.0511,-4.344934 0.0767,4.067261 0.48558,-1.694452 0.89449,1.662029 0.33223,-5.142779 0.10223,4.919405 0.33224,-3.19528 0.0255,0.754153 0.25557,1.349175 0.28113,-0.760115 0.25556,-1.109651 0.20446,1.056392 0.25556,0.685609 1.25229,-4.345554 0.20445,6.122821 0.10222,-2.590389 0.71559,-0.01617 0.3578,1.304594 0.15334,-1.531917 0.35779,-1.783724 0.0511,2.444808 0.17889,-1.327509 0.10223,0.386832 0.0767,-2.5717 0.0256,2.085661 0.10222,3.423416 0.12779,-2.456889 0.51113,-0.170627 0.25557,-0.203117 0.10223,-2.058109 0.4089,0.483942 0.3578,2.040686 0.89448,2.449083 0.0256,1.408328 0.0256,-3.220592 0.17889,0.470452 0.56225,-4.529152 0.48558,1.55702 0.48558,1.094476 0.0256,1.831171 0.12778,-0.639937 0.69003,-1.271374 0.46002,-0.225982 0.51114,2.113272 1.02227,0.04496 v 0"
           style="fill:none;stroke:#4c72b0;stroke-width:1.5;stroke-linecap:round;stroke-linejoin:round"
           id="path288"
           inkscape:connector-curvature="0" />
      </g>
      <g
         id="patch_3"
         style="stroke-linecap:butt;stroke-linejoin:round">
        <path
           d="m 47.367969,180.73125 v -166.32"
           style="fill:none;stroke:#ffffff;stroke-width:1.25;stroke-linecap:square;stroke-linejoin:miter"
           id="path291"
           inkscape:connector-curvature="0" />
      </g>
      <g
         id="patch_4"
         style="stroke-linecap:butt;stroke-linejoin:round">
        <path
           d="m 549.56797,180.73125 v -166.32"
           style="fill:none;stroke:#ffffff;stroke-width:1.25;stroke-linecap:square;stroke-linejoin:miter"
           id="path294"
           inkscape:connector-curvature="0" />
      </g>
      <g
         id="patch_5"
         style="stroke-linecap:butt;stroke-linejoin:round">
        <path
           d="M 47.367969,180.73125 H 549.56797"
           style="fill:none;stroke:#ffffff;stroke-width:1.25;stroke-linecap:square;stroke-linejoin:miter"
           id="path297"
           inkscape:connector-curvature="0" />
      </g>
      <g
         id="patch_6"
         style="stroke-linecap:butt;stroke-linejoin:round">
        <path
           d="M 47.367969,14.41125 H 549.56797"
           style="fill:none;stroke:#ffffff;stroke-width:1.25;stroke-linecap:square;stroke-linejoin:miter"
           id="path300"
           inkscape:connector-curvature="0" />
      </g>
      <g
         id="text_17"
         style="stroke-linecap:butt;stroke-linejoin:round">
        <!-- Discriminator loss -->
        <defs
           id="defs308">
          <path
             d="M 10.09375,68.296875 C 9.59375,68.296875 9.296875,68 9.296875,67.5 V 0.796875 C 9.296875,0.296875 9.59375,0 10.09375,0 h 21.609375 c 17.390625,0 28.09375,13 28.09375,34.203125 0,21.203125 -10.703125,34.09375 -28.09375,34.09375 z m 3.5,-3.890625 h 18.109375 c 15,0 23.703125,-11.3125 23.703125,-30.203125 C 55.40625,15.296875 46.703125,4 31.703125,4 H 13.59375 Z"
             id="Neris-Thin-68"
             inkscape:connector-curvature="0"
             style="stroke-linecap:butt;stroke-linejoin:round" />
          <path
             d="m 40.203125,1.59375 c 0.5,0.109375 0.703125,0.5 0.5,1 L 40,4.796875 c -0.203125,0.40625 -0.59375,0.609375 -1,0.5 L 36.40625,4.5 c -3.203125,-1 -6.3125,-1.40625 -9.109375,-1.40625 -11.59375,0 -17.703125,7.8125 -17.703125,20.703125 0,12.90625 5.90625,20.703125 18,20.703125 2.3125,0 5.109375,-0.296875 8.203125,-1.203125 L 38.203125,42.5 c 0.5,-0.09375 0.890625,0.09375 1.09375,0.59375 L 40,45.296875 c 0.203125,0.5 0,0.90625 -0.5,1 L 37,47 c -3.296875,1 -6.296875,1.59375 -9.5,1.59375 -14.5,0 -22.09375,-9.5 -22.09375,-24.796875 C 5.40625,8.59375 13.09375,-1 27.40625,-1 31,-1 34.296875,-0.203125 37.59375,0.796875 Z"
             id="Neris-Thin-99"
             inkscape:connector-curvature="0"
             style="stroke-linecap:butt;stroke-linejoin:round" />
          <path
             d="m 12.296875,46.796875 c 0,0.5 -0.296875,0.796875 -0.796875,0.796875 H 9.09375 c -0.5,0 -0.796875,-0.296875 -0.796875,-0.796875 v -46 C 8.296875,0.296875 8.59375,0 9.09375,0 h 2.609375 C 12.203125,0 12.5,0.296875 12.5,0.796875 V 22 c 0,13 4.90625,22.5 16.796875,22.5 7.5,0 12,-5.90625 12,-15.59375 V 0.796875 C 41.296875,0.296875 41.59375,0 42.09375,0 h 2.5 c 0.5,0 0.8125,0.296875 0.8125,0.796875 V 22 c 0,13 5,22.5 17,22.5 7.5,0 11.796875,-5.90625 11.796875,-15.703125 v -28 C 74.203125,0.296875 74.5,0 75,0 h 2.59375 c 0.5,0 0.8125,0.296875 0.8125,0.796875 V 29 c 0,12 -6.109375,19.59375 -15.90625,19.59375 -7.703125,0 -13.203125,-3.1875 -17.296875,-10.296875 C 44.796875,37.59375 44,37.5 43.703125,38.40625 c -2,5.390625 -6.40625,10.1875 -14.203125,10.1875 -7.796875,0 -12.296875,-3.1875 -16.09375,-8.890625 -0.5,-0.796875 -1.109375,-0.703125 -1.109375,0.09375 z"
             id="Neris-Thin-109"
             inkscape:connector-curvature="0"
             style="stroke-linecap:butt;stroke-linejoin:round" />
          <path
             id="Neris-Thin-32"
             d=""
             inkscape:connector-curvature="0"
             style="stroke-linecap:butt;stroke-linejoin:round" />
          <path
             d="m 12.5,69.296875 c 0,0.5 -0.296875,0.796875 -0.796875,0.796875 H 9.09375 c -0.5,0 -0.796875,-0.296875 -0.796875,-0.796875 V 7 c 0,-5 2.703125,-8 7.109375,-8 0.890625,0 1.796875,0.203125 2.59375,0.40625 0.5,0.1875 0.59375,0.59375 0.40625,1 l -1,2.390625 c -0.203125,0.40625 -0.5,0.5 -1,0.40625 -0.3125,-0.109375 -0.609375,-0.109375 -1,-0.109375 C 13.59375,3.09375 12.5,4.59375 12.5,7 Z"
             id="Neris-Thin-108"
             inkscape:connector-curvature="0"
             style="stroke-linecap:butt;stroke-linejoin:round" />
        </defs>
        <g
           style="fill:#262626;stroke-linecap:butt;stroke-linejoin:round"
           transform="matrix(0.12,0,0,-0.12,252.22766,8.41125)"
           id="g346">
          <use
             xlink:href="#Neris-Thin-68"
             id="use310"
             style="stroke-linecap:butt;stroke-linejoin:round"
             x="0"
             y="0"
             width="100%"
             height="100%" />
          <use
             x="65.699997"
             xlink:href="#Neris-Thin-105"
             id="use312"
             style="stroke-linecap:butt;stroke-linejoin:round"
             y="0"
             width="100%"
             height="100%" />
          <use
             x="89.299988"
             xlink:href="#Neris-Thin-115"
             id="use314"
             style="stroke-linecap:butt;stroke-linejoin:round"
             y="0"
             width="100%"
             height="100%" />
          <use
             x="135.79997"
             xlink:href="#Neris-Thin-99"
             id="use316"
             style="stroke-linecap:butt;stroke-linejoin:round"
             y="0"
             width="100%"
             height="100%" />
          <use
             x="182.19997"
             xlink:href="#Neris-Thin-114"
             id="use318"
             style="stroke-linecap:butt;stroke-linejoin:round"
             y="0"
             width="100%"
             height="100%" />
          <use
             x="218.39996"
             xlink:href="#Neris-Thin-105"
             id="use320"
             style="stroke-linecap:butt;stroke-linejoin:round"
             y="0"
             width="100%"
             height="100%" />
          <use
             x="241.99995"
             xlink:href="#Neris-Thin-109"
             id="use322"
             style="stroke-linecap:butt;stroke-linejoin:round"
             y="0"
             width="100%"
             height="100%" />
          <use
             x="328.19995"
             xlink:href="#Neris-Thin-105"
             id="use324"
             style="stroke-linecap:butt;stroke-linejoin:round"
             y="0"
             width="100%"
             height="100%" />
          <use
             x="351.79993"
             xlink:href="#Neris-Thin-110"
             id="use326"
             style="stroke-linecap:butt;stroke-linejoin:round"
             y="0"
             width="100%"
             height="100%" />
          <use
             x="407.39993"
             xlink:href="#Neris-Thin-97"
             id="use328"
             style="stroke-linecap:butt;stroke-linejoin:round"
             y="0"
             width="100%"
             height="100%" />
          <use
             x="457.49991"
             xlink:href="#Neris-Thin-116"
             id="use330"
             style="stroke-linecap:butt;stroke-linejoin:round"
             y="0"
             width="100%"
             height="100%" />
          <use
             x="489.59988"
             xlink:href="#Neris-Thin-111"
             id="use332"
             style="stroke-linecap:butt;stroke-linejoin:round"
             y="0"
             width="100%"
             height="100%" />
          <use
             x="542.69989"
             xlink:href="#Neris-Thin-114"
             id="use334"
             style="stroke-linecap:butt;stroke-linejoin:round"
             y="0"
             width="100%"
             height="100%" />
          <use
             x="578.8999"
             xlink:href="#Neris-Thin-32"
             id="use336"
             style="stroke-linecap:butt;stroke-linejoin:round"
             y="0"
             width="100%"
             height="100%" />
          <use
             x="600.79987"
             xlink:href="#Neris-Thin-108"
             id="use338"
             style="stroke-linecap:butt;stroke-linejoin:round"
             y="0"
             width="100%"
             height="100%" />
          <use
             x="624.59985"
             xlink:href="#Neris-Thin-111"
             id="use340"
             style="stroke-linecap:butt;stroke-linejoin:round"
             y="0"
             width="100%"
             height="100%" />
          <use
             x="677.69989"
             xlink:href="#Neris-Thin-115"
             id="use342"
             style="stroke-linecap:butt;stroke-linejoin:round"
             y="0"
             width="100%"
             height="100%" />
          <use
             x="724.19983"
             xlink:href="#Neris-Thin-115"
             id="use344"
             style="stroke-linecap:butt;stroke-linejoin:round"
             y="0"
             width="100%"
             height="100%" />
        </g>
      </g>
    </g>
  </g>
  <defs
     id="defs354">
    <clipPath
       id="pdc0481f6d2"
       style="stroke-linecap:butt;stroke-linejoin:round">
      <rect
         height="166.32001"
         width="502.20001"
         x="47.36797"
         y="14.41125"
         id="rect351"
         style="stroke-linecap:butt;stroke-linejoin:round" />
    </clipPath>
  </defs>
</svg>
